<?xml version="1.0" encoding="UTF-8"?>
<!DOCTYPE svg PUBLIC "-//W3C//DTD SVG 1.1//EN" "http://www.w3.org/Graphics/SVG/1.1/DTD/svg11.dtd">
<svg xmlns="http://www.w3.org/2000/svg" version="1.1" width="85px" height="59px" style="shape-rendering:geometricPrecision; text-rendering:geometricPrecision; image-rendering:optimizeQuality; fill-rule:evenodd; clip-rule:evenodd" xmlns:xlink="http://www.w3.org/1999/xlink">
<g><path style="opacity:0.7" fill="#8f212f" d="M 52.5,0.5 C 53.552,0.350549 54.552,0.517215 55.5,1C 64.7448,9.74127 73.4114,18.9079 81.5,28.5C 74.0492,37.4528 66.0492,45.9528 57.5,54C 55.9751,55.0086 54.3084,55.5086 52.5,55.5C 52.3505,54.448 52.5172,53.448 53,52.5C 60.1667,45.3333 67.3333,38.1667 74.5,31C 51.5,30.6667 28.5,30.3333 5.5,30C 4.0745,28.2859 4.40783,26.9525 6.5,26C 29.0727,25.1732 51.5727,25.3399 74,26.5C 67.5356,19.0267 60.5356,11.6933 53,4.5C 52.51,3.20677 52.3433,1.87344 52.5,0.5 Z"/></g>
</svg>
