<?xml version="1.0" encoding="UTF-8"?>
<!DOCTYPE svg PUBLIC "-//W3C//DTD SVG 1.1//EN" "http://www.w3.org/Graphics/SVG/1.1/DTD/svg11.dtd">
<svg xmlns="http://www.w3.org/2000/svg" version="1.1" width="1030px" height="1183px" style="shape-rendering:geometricPrecision; text-rendering:geometricPrecision; image-rendering:optimizeQuality; fill-rule:evenodd; clip-rule:evenodd" xmlns:xlink="http://www.w3.org/1999/xlink">
<g><path style="opacity:0.999" fill="#a71a2c" d="M 479.5,-0.5 C 483.167,-0.5 486.833,-0.5 490.5,-0.5C 602.961,3.64841 694.794,48.9817 766,135.5C 832.215,223.041 855.382,321.041 835.5,429.5C 834.657,431.173 833.324,432.34 831.5,433C 708.833,491.667 586.167,550.333 463.5,609C 462,610.5 460.5,612 459,613.5C 446.962,645.797 434.462,677.797 421.5,709.5C 303.991,685.117 217.824,619.784 163,513.5C 116.432,411.132 115.765,308.466 161,205.5C 212.615,101.243 295.115,35.4097 408.5,8C 432.087,3.21382 455.754,0.380488 479.5,-0.5 Z"/></g>
<g><path style="opacity:0.976" fill="#030303" d="M 1029.5,865.5 C 1029.5,868.167 1029.5,870.833 1029.5,873.5C 1026.15,879.234 1021.15,881.401 1014.5,880C 981.833,870.333 949.167,860.667 916.5,851C 914.741,850.202 913.074,850.369 911.5,851.5C 844,953.167 776.5,1054.83 709,1156.5C 704.689,1161.47 699.522,1162.64 693.5,1160C 686.648,1153.65 679.648,1147.48 672.5,1141.5C 663.805,1153.7 655.305,1166.03 647,1178.5C 644.745,1180.5 642.245,1181.83 639.5,1182.5C 638.833,1182.5 638.167,1182.5 637.5,1182.5C 635.611,1181.68 633.611,1180.84 631.5,1180C 601.195,1148.69 570.528,1117.69 539.5,1087C 365.179,1079.1 190.845,1071.44 16.5,1064C 7.44825,1065.49 1.78158,1061.99 -0.5,1053.5C -0.5,1052.83 -0.5,1052.17 -0.5,1051.5C 0.321983,1049.61 1.15532,1047.61 2,1045.5C 55.5816,965.338 108.915,885.005 162,804.5C 164.632,800.534 168.299,798.2 173,797.5C 181.794,799.386 190.628,800.053 199.5,799.5C 143.253,700.004 86.753,600.671 30,501.5C 26.9903,489.174 31.8237,483.674 44.5,485C 160.629,585.46 276.462,686.294 392,787.5C 402.124,761.589 411.958,735.589 421.5,709.5C 434.462,677.797 446.962,645.797 459,613.5C 460.5,612 462,610.5 463.5,609C 586.167,550.333 708.833,491.667 831.5,433C 833.324,432.34 834.657,431.173 835.5,429.5C 868.933,413.951 902.266,398.118 935.5,382C 945.061,378.612 951.061,381.779 953.5,391.5C 943.22,515.856 932.887,640.189 922.5,764.5C 937.822,765.333 953.156,765.833 968.5,766C 969.833,766.667 971.167,767.333 972.5,768C 991.762,800.41 1010.76,832.91 1029.5,865.5 Z"/></g>
<g><path style="opacity:1" fill="#fefefe" d="M 925.5,403.5 C 926.239,403.369 926.906,403.536 927.5,404C 818.333,549.167 709.167,694.333 600,839.5C 571.5,818.333 543,797.167 514.5,776C 512.5,775.333 510.5,775.333 508.5,776C 473.455,784.18 438.455,792.18 403.5,800C 426.5,740.333 449.5,680.667 472.5,621C 623.835,548.998 774.835,476.498 925.5,403.5 Z"/></g>
<g><path style="opacity:1" fill="#fefefe" d="M 935.5,406.5 C 936.147,407.274 936.48,408.274 936.5,409.5C 926.41,530.142 916.577,650.809 907,771.5C 897.898,772.665 888.731,772.665 879.5,771.5C 876.705,771.453 874.039,771.953 871.5,773C 811.5,817 751.5,861 691.5,905C 690.167,905.667 688.833,905.667 687.5,905C 660.668,884.994 634.001,864.827 607.5,844.5C 716.842,698.47 826.176,552.47 935.5,406.5 Z"/></g>
<g><path style="opacity:1" fill="#fefefe" d="M 56.5,515.5 C 166.962,611.458 277.295,707.624 387.5,804C 361.673,810.665 335.673,816.498 309.5,821.5C 280.73,818.487 252.063,814.82 223.5,810.5C 167.556,712.274 111.89,613.941 56.5,515.5 Z"/></g>
<g><path style="opacity:0.998" fill="#fbfbfb" d="M 904.5,781.5 C 923.662,780.338 942.996,780.171 962.5,781C 976.752,804.836 990.752,828.836 1004.5,853C 1003.83,853.667 1003.17,853.667 1002.5,853C 969.955,828.949 937.289,805.115 904.5,781.5 Z"/></g>
<g><path style="opacity:0.999" fill="#fefefe" d="M 874.5,780.5 C 881.358,782.175 888.025,784.342 894.5,787C 812.124,908.253 729.624,1029.42 647,1150.5C 652.574,1115.12 658.741,1079.79 665.5,1044.5C 651.103,1018.04 636.437,991.709 621.5,965.5C 706.423,904.548 790.757,842.882 874.5,780.5 Z"/></g>
<g><path style="opacity:1" fill="#fdfdfd" d="M 501.5,785.5 C 503.167,785.5 504.833,785.5 506.5,785.5C 496.86,831.866 487.027,878.199 477,924.5C 426.167,892.333 375.333,860.167 324.5,828C 383.642,813.964 442.642,799.797 501.5,785.5 Z"/></g>
<g><path style="opacity:0.999" fill="#fdfdfd" d="M 513.5,791.5 C 552.973,861.104 592.473,930.771 632,1000.5C 637.675,1010.85 643.008,1021.19 648,1031.5C 594,997.5 540,963.5 486,929.5C 485.333,927.5 485.333,925.5 486,923.5C 495.487,879.553 504.654,835.553 513.5,791.5 Z"/></g>
<g><path style="opacity:0.998" fill="#fbfbfb" d="M 907.5,794.5 C 936.603,815.09 965.603,835.923 994.5,857C 967.08,849.976 939.747,842.309 912.5,834C 909.925,820.996 908.258,807.83 907.5,794.5 Z"/></g>
<g><path style="opacity:0.999" fill="#fdfdfd" d="M 526.5,795.5 C 577.47,833.324 628.47,871.158 679.5,909C 681.007,909.837 681.507,911.004 681,912.5C 660,928.167 639,943.833 618,959.5C 587.222,904.94 556.722,850.274 526.5,795.5 Z"/></g>
<g><path style="opacity:0.999" fill="#fcfcfc" d="M 897.5,796.5 C 898.765,797.514 899.431,799.014 899.5,801C 900.956,812.846 902.123,824.68 903,836.5C 835.667,937.833 768.333,1039.17 701,1140.5C 700.28,1142.26 699.113,1143.09 697.5,1143C 690.667,1136.83 683.833,1130.67 677,1124.5C 676.333,1123.5 676.333,1122.5 677,1121.5C 750.747,1013.27 824.247,904.934 897.5,796.5 Z"/></g>
<g><path style="opacity:1" fill="#fefefe" d="M 174.5,813.5 C 220.143,819.08 265.809,824.58 311.5,830C 374.002,869.083 436.335,908.417 498.5,948C 339.153,980.936 179.82,1013.6 20.5,1046C 72.0556,968.618 123.389,891.118 174.5,813.5 Z"/></g>
<g><path style="opacity:1" fill="#fdfdfd" d="M 53.5,1050.5 C 52.1667,1049.83 50.8333,1049.17 49.5,1048.5C 203.154,1017 356.821,985.836 510.5,955C 557.669,984.417 604.669,1014.08 651.5,1044C 627.754,1053.14 604.087,1062.47 580.5,1072C 567.955,1072.64 555.455,1072.14 543,1070.5C 540.688,1070.98 538.355,1071.31 536,1071.5C 375.184,1064.1 214.351,1057.1 53.5,1050.5 Z"/></g>
<g><path style="opacity:0.753" fill="#999999" d="M 49.5,1048.5 C 50.8333,1049.17 52.1667,1049.83 53.5,1050.5C 51.1432,1050.66 48.8098,1050.5 46.5,1050C 47.5266,1049.49 48.5266,1048.99 49.5,1048.5 Z"/></g>
<g><path style="opacity:0.999" fill="#fdfdfd" d="M 653.5,1051.5 C 654.586,1051.62 655.253,1052.29 655.5,1053.5C 649.149,1089.57 642.483,1125.57 635.5,1161.5C 609.041,1134.54 582.374,1107.71 555.5,1081C 563.864,1080.5 572.198,1080.5 580.5,1081C 605.053,1071.43 629.387,1061.6 653.5,1051.5 Z"/></g>
</svg>
