<?xml version="1.0" encoding="UTF-8"?>
<!DOCTYPE svg PUBLIC "-//W3C//DTD SVG 1.1//EN" "http://www.w3.org/Graphics/SVG/1.1/DTD/svg11.dtd">
<svg xmlns="http://www.w3.org/2000/svg" version="1.1" width="1041px" height="1183px" style="shape-rendering:geometricPrecision; text-rendering:geometricPrecision; image-rendering:optimizeQuality; fill-rule:evenodd; clip-rule:evenodd" xmlns:xlink="http://www.w3.org/1999/xlink">
<g><path style="opacity:0.993" fill="#020202" d="M 426.5,-0.5 C 427.833,-0.5 429.167,-0.5 430.5,-0.5C 434.748,0.480962 439.081,1.64763 443.5,3C 456.167,10.3333 468.833,17.6667 481.5,25C 488.705,27.4432 496.038,27.9432 503.5,26.5C 500.075,18.478 502.075,11.978 509.5,7C 523.517,-0.242748 537.517,-0.242748 551.5,7C 557.67,10.9192 564.003,14.5859 570.5,18C 585.536,21.8737 600.536,25.8737 615.5,30C 627.353,34.9148 637.353,42.2481 645.5,52C 653.379,55.0708 661.379,57.7375 669.5,60C 672.167,60.6667 674.833,60.6667 677.5,60C 684.595,57.9529 691.595,55.6195 698.5,53C 705.956,50.7882 713.289,51.1216 720.5,54C 724.462,56.5644 728.629,58.731 733,60.5C 736.021,47.6941 743.854,43.5274 756.5,48C 761.893,50.7258 766.726,54.2258 771,58.5C 777.412,66.9908 783.579,75.6575 789.5,84.5C 809.462,89.4794 827.129,98.6461 842.5,112C 852.863,122.697 863.529,133.03 874.5,143C 886.082,148.527 897.749,153.86 909.5,159C 918.421,165.065 919.754,172.398 913.5,181C 909.813,183.285 905.813,184.452 901.5,184.5C 902.352,187.223 903.519,189.89 905,192.5C 913.391,203.892 921.391,215.559 929,227.5C 934.157,235.638 937.323,244.471 938.5,254C 937.937,266.779 931.271,272.946 918.5,272.5C 919.259,278.482 919.926,284.482 920.5,290.5C 920.01,308.072 911.677,313.572 895.5,307C 889.352,300.545 884.852,293.045 882,284.5C 880.457,282.622 878.624,281.122 876.5,280C 868.54,278.504 860.54,277.171 852.5,276C 845.773,273.803 839.439,270.803 833.5,267C 829.342,265.349 825.175,265.183 821,266.5C 818.773,273.716 815.273,280.216 810.5,286C 807.634,287.457 804.634,287.79 801.5,287C 798.705,285.207 796.205,283.04 794,280.5C 790.165,273.492 785.831,266.826 781,260.5C 772.29,252.566 763.123,245.233 753.5,238.5C 741.679,243.575 731.012,250.408 721.5,259C 663.664,310.684 620.997,372.851 593.5,445.5C 576.86,486.381 565.027,528.714 558,572.5C 554.914,592.783 552.247,613.117 550,633.5C 548.416,656.367 549.75,679.034 554,701.5C 554.333,702.167 554.667,702.833 555,703.5C 559.799,699.35 565.299,696.683 571.5,695.5C 572.663,691.018 574.996,687.184 578.5,684C 583.906,680.965 589.573,678.465 595.5,676.5C 592.185,669.117 592.852,662.284 597.5,656C 605.043,652.539 612.377,653.205 619.5,658C 625.593,662.089 631.093,666.922 636,672.5C 648.121,687.622 661.288,701.788 675.5,715C 676.833,715.667 678.167,716.333 679.5,717C 686.167,717.333 692.833,717.667 699.5,718C 703.467,718.483 707.134,719.816 710.5,722C 721.46,730.624 732.126,739.624 742.5,749C 758.004,757.582 773.004,766.915 787.5,777C 800.676,790.182 809.01,806.015 812.5,824.5C 834.029,829.534 851.863,840.534 866,857.5C 870.648,864.638 875.815,871.305 881.5,877.5C 885.699,884.057 890.032,890.557 894.5,897C 903.493,901.495 912.16,906.495 920.5,912C 934.884,923.385 949.55,934.385 964.5,945C 984.637,957.565 1006.3,966.565 1029.5,972C 1033.97,973.548 1037.63,976.048 1040.5,979.5C 1040.5,981.5 1040.5,983.5 1040.5,985.5C 1037.04,992.808 1031.87,998.808 1025,1003.5C 1019.75,1014.42 1012.59,1023.92 1003.5,1032C 991.335,1039.92 979.001,1047.58 966.5,1055C 937.304,1082.93 904.637,1105.93 868.5,1124C 843.367,1133.57 818.701,1144.23 794.5,1156C 761.732,1169.9 727.565,1177.4 692,1178.5C 686.171,1178.08 680.338,1177.75 674.5,1177.5C 645.021,1179.43 615.688,1181.09 586.5,1182.5C 583.5,1182.5 580.5,1182.5 577.5,1182.5C 562.621,1181.8 547.621,1180.63 532.5,1179C 493.194,1171.21 453.86,1163.54 414.5,1156C 355.361,1139.43 300.695,1113.76 250.5,1079C 241.535,1070.86 232.201,1063.19 222.5,1056C 212.809,1046.31 202.476,1037.31 191.5,1029C 176.667,1014.17 161.833,999.333 147,984.5C 132.015,968.541 121.682,949.874 116,928.5C 114.254,924.673 112.254,921.007 110,917.5C 93,898.5 76,879.5 59,860.5C 51.9535,852.239 47.4535,842.739 45.5,832C 45.731,826.036 48.3976,821.536 53.5,818.5C 47.5494,808.821 43.0494,798.487 40,787.5C 33.8819,756.125 27.5486,724.792 21,693.5C 18.1253,683.544 14.4587,673.877 10,664.5C 6.70073,654.406 5.36739,644.073 6,633.5C 7.38006,625.025 9.38006,616.691 12,608.5C 12.6667,606.5 12.6667,604.5 12,602.5C 4.70085,599.549 0.53418,594.216 -0.5,586.5C -0.5,584.5 -0.5,582.5 -0.5,580.5C 3.36071,567.409 7.86071,554.409 13,541.5C 17.702,521.025 22.8687,500.692 28.5,480.5C 19.0912,479.39 15.2578,474.056 17,464.5C 17.7977,461.107 18.7977,457.774 20,454.5C 34.7863,432.603 47.7863,409.603 59,385.5C 64.8172,368.371 71.9838,351.871 80.5,336C 58.8805,331.453 54.3805,320.286 67,302.5C 76.8986,295.605 87.0653,289.105 97.5,283C 107.423,272.415 116.589,261.248 125,249.5C 137,238.167 149,226.833 161,215.5C 169.705,205.462 173.038,193.795 171,180.5C 172.715,171.118 178.215,165.285 187.5,163C 196.192,162.536 204.858,162.536 213.5,163C 204.426,155.28 203.259,146.446 210,136.5C 211.873,134.291 214.04,132.458 216.5,131C 226.167,129.333 235.833,127.667 245.5,126C 255.705,120.065 266.038,114.398 276.5,109C 287.6,105.6 298.766,102.433 310,99.5C 318.223,89.2764 327.723,80.4431 338.5,73C 351.591,65.9277 365.591,62.9277 380.5,64C 381.667,62.8333 382.833,61.6667 384,60.5C 386.309,48.0255 393.809,41.3588 406.5,40.5C 412.345,41.733 418.012,43.233 423.5,45C 419.667,39.8333 415.833,34.6667 412,29.5C 404.336,13.1654 409.169,3.16537 426.5,-0.5 Z"/></g>
<g><path style="opacity:1" fill="#fdfdfd" d="M 427.5,11.5 C 433.447,11.9035 439.113,13.4035 444.5,16C 453.669,21.4166 462.669,27.0833 471.5,33C 484.999,40.5001 498.999,41.5001 513.5,36C 518.833,35.3333 524.167,35.3333 529.5,36C 534.008,38.7533 538.341,41.7533 542.5,45C 543.944,45.7805 545.277,45.6139 546.5,44.5C 542.682,40.1817 538.682,36.015 534.5,32C 527.307,29.1537 520.474,25.6537 514,21.5C 513.37,19.0966 514.203,17.2633 516.5,16C 525.42,11.562 534.42,11.562 543.5,16C 552.374,20.9369 561.374,25.6036 570.5,30C 585.548,33.8753 600.548,37.8753 615.5,42C 624.769,46.2604 632.602,52.427 639,60.5C 647.447,72.0614 653.781,84.7281 658,98.5C 659.392,107.186 658.392,115.519 655,123.5C 653.192,125.396 651.025,125.896 648.5,125C 644.509,122.011 641.676,118.178 640,113.5C 629.518,101.997 616.684,97.4967 601.5,100C 597.167,105 592.833,110 588.5,115C 583.673,117.147 579.006,116.814 574.5,114C 564.64,104.588 552.974,101.421 539.5,104.5C 541.554,106.194 543.888,107.361 546.5,108C 550.863,108.894 555.196,109.894 559.5,111C 561.387,118.909 559.054,125.243 552.5,130C 544.738,130.144 537.905,132.644 532,137.5C 530.04,140.884 529.207,144.55 529.5,148.5C 530.375,156.158 530.541,163.824 530,171.5C 529.697,173.888 528.863,176.055 527.5,178C 525.711,178.52 524.044,178.187 522.5,177C 517.888,169.786 512.554,163.119 506.5,157C 498.371,152.299 489.705,150.465 480.5,151.5C 484.858,153.574 489.358,155.574 494,157.5C 494.667,160.833 494.667,164.167 494,167.5C 493.692,168.308 493.192,168.975 492.5,169.5C 486.243,164.413 479.576,159.913 472.5,156C 465.745,153.182 458.745,152.182 451.5,153C 451.292,166.541 444.459,173.375 431,173.5C 401.623,168.19 377.623,177.19 359,200.5C 354.017,208.129 351.017,216.463 350,225.5C 339.417,216.804 327.25,212.137 313.5,211.5C 313.5,212.5 313.5,213.5 313.5,214.5C 331.675,217.495 346.175,226.495 357,241.5C 362.92,249.34 367.253,258.007 370,267.5C 370.667,274.167 370.667,280.833 370,287.5C 367.611,293.777 363.111,295.943 356.5,294C 351.536,287.176 344.869,282.843 336.5,281C 313.811,274.992 296.977,282.159 286,302.5C 280.331,308.212 273.497,310.045 265.5,308C 256.783,304.568 247.783,303.235 238.5,304C 224.047,310.393 209.713,317.06 195.5,324C 185.542,326.906 175.876,330.572 166.5,335C 159.993,340.874 158.827,347.707 163,355.5C 168.571,361.648 173.904,367.981 179,374.5C 183.746,383.661 188.746,392.661 194,401.5C 197.011,405.52 200.844,408.353 205.5,410C 192.112,411.293 178.946,410.126 166,406.5C 163.759,406.68 163.259,407.513 164.5,409C 171.964,411.783 179.63,413.783 187.5,415C 206.499,414.933 225.499,414.933 244.5,415C 256.922,415.455 267.088,420.289 275,429.5C 276.239,434.741 279.072,438.908 283.5,442C 290.131,445.327 296.798,448.66 303.5,452C 311.301,458.4 314.134,466.567 312,476.5C 311.477,481.071 309.977,485.238 307.5,489C 306.216,489.684 305.049,489.517 304,488.5C 303.884,477.043 298.051,470.543 286.5,469C 281.597,468.063 276.93,468.73 272.5,471C 268.618,475.214 265.118,479.714 262,484.5C 259.795,487.04 257.295,489.207 254.5,491C 247.36,490.362 240.193,489.529 233,488.5C 216.281,490.385 208.448,499.718 209.5,516.5C 204.168,515.5 198.835,514.5 193.5,513.5C 193.281,514.675 193.614,515.675 194.5,516.5C 205.365,519.015 214.865,524.015 223,531.5C 227.896,536.946 230.229,543.28 230,550.5C 228.18,553.203 225.68,554.036 222.5,553C 219.833,552 217.167,551 214.5,550C 206.733,545.231 198.733,540.898 190.5,537C 169.28,532.631 151.113,538.131 136,553.5C 135.37,555.903 136.203,557.737 138.5,559C 142.198,560.849 145.864,562.682 149.5,564.5C 150.641,566.421 150.808,568.421 150,570.5C 149.481,571.516 148.647,572.182 147.5,572.5C 139.545,569.237 131.545,566.07 123.5,563C 104.509,557.276 88.8422,562.109 76.5,577.5C 71.0519,570.549 65.0519,564.049 58.5,558C 57.552,557.517 56.552,557.351 55.5,557.5C 55.3505,558.552 55.5172,559.552 56,560.5C 70.3807,576.929 79.714,595.929 84,617.5C 84.6667,621.833 84.6667,626.167 84,630.5C 83.0508,633.2 81.2175,634.033 78.5,633C 66.2914,614.529 52.7914,613.696 38,630.5C 30.2618,643.455 25.9284,657.455 25,672.5C 18.0272,658.937 15.6939,644.604 18,629.5C 19.5104,622.459 21.177,615.459 23,608.5C 25.1773,599.185 21.8439,592.852 13,589.5C 11.5961,587.361 10.7628,585.028 10.5,582.5C 14.0404,571.082 17.8737,559.748 22,548.5C 27.2605,527.386 32.9271,506.386 39,485.5C 42.8061,476.554 47.1394,467.888 52,459.5C 54.2767,455.065 55.2767,450.399 55,445.5C 52.8324,450.845 49.9991,455.845 46.5,460.5C 41.7133,462.789 37.0466,465.289 32.5,468C 30.3927,468.854 29.0593,468.188 28.5,466C 29.3333,463.5 30.1667,461 31,458.5C 39.4982,443.499 48.4982,428.833 58,414.5C 67.7028,394.393 76.0361,373.726 83,352.5C 90.1493,337.864 97.4827,323.531 105,309.5C 100.454,314.377 96.2873,319.544 92.5,325C 84.5824,326.814 77.749,324.981 72,319.5C 71.88,313.26 74.7134,308.76 80.5,306C 94.5254,299.736 106.692,290.903 117,279.5C 123.667,270.833 130.333,262.167 137,253.5C 147.333,243.833 157.667,234.167 168,224.5C 174.177,218.149 178.844,210.816 182,202.5C 182.333,196.167 182.667,189.833 183,183.5C 184.319,177.924 187.819,174.757 193.5,174C 201.833,173.667 210.167,173.333 218.5,173C 224.22,171.64 229.22,168.974 233.5,165C 238.864,164.829 244.198,164.329 249.5,163.5C 249.291,162.914 248.957,162.414 248.5,162C 239.652,160.288 230.986,157.955 222.5,155C 216.075,147.492 217.408,142.159 226.5,139C 234.963,138.401 243.296,137.068 251.5,135C 261.159,130.172 270.492,124.839 279.5,119C 289.35,115.495 299.183,111.995 309,108.5C 309.667,109.167 309.667,109.833 309,110.5C 304.311,116.187 299.311,121.521 294,126.5C 293.51,127.793 293.343,129.127 293.5,130.5C 297.024,130.071 300.024,128.571 302.5,126C 311.747,116.757 320.247,106.924 328,96.5C 342.673,80.5874 360.84,73.7541 382.5,76C 387.406,75.7007 391.239,73.5341 394,69.5C 395.331,65.5115 396.665,61.5115 398,57.5C 400.198,51.6633 404.032,50.1633 409.5,53C 413.5,55 417.5,57 421.5,59C 432.244,59.5779 436.744,54.4112 435,43.5C 432.87,36.5753 429.203,30.5753 424,25.5C 420.165,19.5209 421.332,14.8542 427.5,11.5 Z"/></g>
<g><path style="opacity:0.988" fill="#121212" d="M 492.5,42.5 C 499.197,43.5659 505.531,45.7325 511.5,49C 505.679,49.1313 500.012,48.1313 494.5,46C 493.027,45.2904 492.36,44.1238 492.5,42.5 Z"/></g>
<g><path style="opacity:0.831" fill="#1b1b1b" d="M 508.5,42.5 C 512.957,43.0615 516.957,44.7281 520.5,47.5C 520.333,47.8333 520.167,48.1667 520,48.5C 516.983,46.4106 513.649,45.0773 510,44.5C 508.97,44.1639 508.47,43.4972 508.5,42.5 Z"/></g>
<g><path style="opacity:0.985" fill="#1a1a1a" d="M 482.5,46.5 C 487.249,47.5209 491.916,48.8542 496.5,50.5C 496.167,50.8333 495.833,51.1667 495.5,51.5C 491.212,50.5888 486.879,49.9221 482.5,49.5C 482.5,48.5 482.5,47.5 482.5,46.5 Z"/></g>
<g><path style="opacity:0.995" fill="#0d0d0d" d="M 594.5,58.5 C 591.5,57.8333 588.5,57.1667 585.5,56.5C 596.42,54.545 607.087,55.3784 617.5,59C 620.507,61.1655 622.507,63.9989 623.5,67.5C 623.069,69.7661 621.736,71.2661 619.5,72C 615.459,72.1735 611.459,72.6735 607.5,73.5C 612.024,78.0918 611.024,80.9251 604.5,82C 597.923,82.9932 591.59,82.1598 585.5,79.5C 584.614,78.675 584.281,77.675 584.5,76.5C 590.425,77.9857 596.425,78.4857 602.5,78C 602.833,77.6667 603.167,77.3333 603.5,77C 600.518,74.8089 600.185,72.4755 602.5,70C 607.811,68.9277 613.145,67.9277 618.5,67C 611.579,61.3029 603.579,58.4695 594.5,58.5 Z"/></g>
<g><path style="opacity:0.78" fill="#767676" d="M 585.5,56.5 C 588.5,57.1667 591.5,57.8333 594.5,58.5C 590.486,58.6655 586.486,58.4988 582.5,58C 583.244,56.9614 584.244,56.4614 585.5,56.5 Z"/></g>
<g><path style="opacity:1" fill="#fdfdfd" d="M 746.5,57.5 C 748.655,57.372 750.655,57.872 752.5,59C 756.667,62.5 760.833,66 765,69.5C 775.498,84.4919 785.498,99.8252 795,115.5C 796.812,118.28 798.979,120.78 801.5,123C 802.483,123.591 803.15,123.257 803.5,122C 799.558,113.281 795.224,104.781 790.5,96.5C 805.075,99.9518 818.409,106.452 830.5,116C 843.228,129.397 856.562,142.064 870.5,154C 880.181,158.783 890.181,162.783 900.5,166C 903.362,166.93 905.695,168.597 907.5,171C 906.833,171.667 906.167,172.333 905.5,173C 888.566,174.705 885.066,182.538 895,196.5C 904,209.833 913,223.167 922,236.5C 925.464,242.068 927.13,248.068 927,254.5C 926.31,257.196 924.81,259.363 922.5,261C 918.051,262.312 913.884,264.146 910,266.5C 905.345,257.837 899.178,250.337 891.5,244C 890.668,243.312 890.002,243.479 889.5,244.5C 897.968,254.153 904.135,265.153 908,277.5C 909.384,283.109 909.717,288.775 909,294.5C 906.095,298.327 903.095,298.327 900,294.5C 898.393,289.012 896.393,283.678 894,278.5C 889.79,272.305 883.956,268.472 876.5,267C 870.079,266.541 863.746,265.541 857.5,264C 849.935,260.717 842.268,257.717 834.5,255C 828.856,253.93 823.523,254.764 818.5,257.5C 817.766,252.223 816.266,247.223 814,242.5C 812.867,249.057 811.867,255.723 811,262.5C 809.61,266.947 807.444,270.947 804.5,274.5C 799.333,266.833 794.167,259.167 789,251.5C 775.84,238.841 761.34,228.007 745.5,219C 735.305,215.187 724.971,214.52 714.5,217C 711.536,213.034 708.203,209.367 704.5,206C 703.552,205.517 702.552,205.351 701.5,205.5C 701.343,206.873 701.51,208.207 702,209.5C 705.091,214.014 708.425,218.347 712,222.5C 714.347,226.191 715.847,230.191 716.5,234.5C 716.514,236.593 715.848,238.426 714.5,240C 709.889,241.007 705.555,240.34 701.5,238C 697.964,234.799 694.797,231.299 692,227.5C 686.744,217.32 681.744,206.986 677,196.5C 669.608,183.547 661.108,171.38 651.5,160C 649.083,158.374 646.583,156.874 644,155.5C 643.308,156.025 642.808,156.692 642.5,157.5C 647.208,161.207 651.208,165.54 654.5,170.5C 648.845,171.901 644.345,174.901 641,179.5C 639.781,186.421 639.114,193.421 639,200.5C 638.624,205.876 635.79,209.042 630.5,210C 598.485,206.004 586.318,219.504 594,250.5C 597.061,264.049 592.061,273.049 579,277.5C 576.44,273.386 574.107,269.052 572,264.5C 570.89,262.963 569.39,262.297 567.5,262.5C 569.09,267.441 570.59,272.441 572,277.5C 573.194,284.521 572.194,291.187 569,297.5C 567.235,299.774 565.068,301.441 562.5,302.5C 560.971,302.471 559.804,301.804 559,300.5C 560.154,270.322 545.987,251.822 516.5,245C 502.5,244.667 488.5,244.333 474.5,244C 461.247,241.737 447.914,241.07 434.5,242C 428.179,243.941 421.846,245.774 415.5,247.5C 411.314,246.954 407.314,245.787 403.5,244C 389.789,234.04 374.455,228.54 357.5,227.5C 358.593,215.147 363.593,204.647 372.5,196C 381.928,189.619 391.928,184.286 402.5,180C 412.963,178.184 423.463,178.017 434,179.5C 448.018,178.981 455.185,171.647 455.5,157.5C 458.941,157.301 462.274,157.801 465.5,159C 475.143,164.4 484.643,169.9 494,175.5C 496.214,175.089 497.547,173.755 498,171.5C 498.62,167.779 499.453,164.112 500.5,160.5C 503.091,162.38 505.591,164.38 508,166.5C 511.585,172.002 514.919,177.669 518,183.5C 522.974,188.934 527.641,188.601 532,182.5C 538.11,171.735 539.277,160.401 535.5,148.5C 534.954,142.547 537.62,139.047 543.5,138C 559.87,138.964 567.703,131.131 567,114.5C 574.158,122.705 582.658,124.538 592.5,120C 596.263,115.147 600.263,110.48 604.5,106C 607.366,104.543 610.366,104.21 613.5,105C 620.047,106.94 626.047,109.94 631.5,114C 635.76,119.861 639.76,125.861 643.5,132C 648.363,134.329 652.863,133.829 657,130.5C 667.129,115.854 668.129,100.52 660,84.5C 656.717,76.7597 652.55,69.593 647.5,63C 654.724,65.5957 662.057,68.2624 669.5,71C 674.5,71.6667 679.5,71.6667 684.5,71C 692.102,68.0218 699.936,65.8551 708,64.5C 717.009,67.1731 726.009,69.8398 735,72.5C 737.47,72.6597 739.636,71.9931 741.5,70.5C 744.154,66.5362 745.821,62.2028 746.5,57.5 Z"/></g>
<g><path style="opacity:0.982" fill="#151515" d="M 551.5,60.5 C 554.452,61.3589 556.285,63.3589 557,66.5C 558.041,69.6363 557.207,72.1363 554.5,74C 551.5,74.6667 548.5,74.6667 545.5,74C 544.692,73.6924 544.025,73.1924 543.5,72.5C 547.041,71.8 550.541,71.1334 554,70.5C 553.508,67.1504 552.675,63.817 551.5,60.5 Z"/></g>
<g><path style="opacity:0.977" fill="#171717" d="M 723.5,73.5 C 729.609,75.9244 734.609,79.9244 738.5,85.5C 737.998,86.521 737.332,86.6877 736.5,86C 733.219,81.8812 729.219,78.7146 724.5,76.5C 723.614,75.675 723.281,74.675 723.5,73.5 Z"/></g>
<g><path style="opacity:0.991" fill="#131313" d="M 705.5,73.5 C 713.91,76.3654 720.91,81.1987 726.5,88C 720.335,83.9072 713.668,80.2405 706.5,77C 705.663,75.9887 705.33,74.8221 705.5,73.5 Z"/></g>
<g><path style="opacity:0.985" fill="#171717" d="M 694.5,78.5 C 699.217,78.5275 703.217,80.1941 706.5,83.5C 706.333,83.8333 706.167,84.1667 706,84.5C 702.983,82.4106 699.649,81.0773 696,80.5C 694.97,80.1639 694.47,79.4972 694.5,78.5 Z"/></g>
<g><path style="opacity:0.992" fill="#1c1c1c" d="M 686.5,82.5 C 690.411,82.7468 693.744,84.2468 696.5,87C 694.017,86.12 691.351,85.2867 688.5,84.5C 687.287,84.2528 686.62,83.5862 686.5,82.5 Z"/></g>
<g><path style="opacity:0.989" fill="#0f0f0f" d="M 374.5,86.5 C 370.167,87.1667 365.833,87.8333 361.5,88.5C 356.167,88.8333 350.833,89.1667 345.5,89.5C 345.5,88.5 345.5,87.5 345.5,86.5C 355.18,83.8734 364.846,83.8734 374.5,86.5 Z"/></g>
<g><path style="opacity:0.992" fill="#0f0f0f" d="M 466.5,83.5 C 476.958,82.9587 486.958,84.792 496.5,89C 501.673,92.0671 502.673,96.0671 499.5,101C 491.913,101.153 484.413,101.32 477,101.5C 476.333,102.5 476.333,103.5 477,104.5C 481.627,106.422 483.627,109.755 483,114.5C 480.347,117.194 477.18,118.027 473.5,117C 468.927,115.713 464.594,113.88 460.5,111.5C 461,111.167 461.5,110.833 462,110.5C 466.975,112.536 472.141,113.536 477.5,113.5C 477.649,112.448 477.483,111.448 477,110.5C 474.721,108.711 472.721,106.711 471,104.5C 469.959,101.364 470.793,98.8637 473.5,97C 479.524,96.3016 485.524,96.4682 491.5,97.5C 495.662,97.3508 496.328,95.8508 493.5,93C 483.007,88.3678 472.007,86.0345 460.5,86C 462.502,84.9808 464.502,84.1475 466.5,83.5 Z"/></g>
<g><path style="opacity:0.757" fill="#6c6c6c" d="M 374.5,86.5 C 375.043,86.56 375.376,86.8933 375.5,87.5C 370.88,88.4933 366.214,88.8266 361.5,88.5C 365.833,87.8333 370.167,87.1667 374.5,86.5 Z"/></g>
<g><path style="opacity:0.985" fill="#131313" d="M 428.5,87.5 C 431.769,87.8844 434.603,89.2177 437,91.5C 437.743,93.4406 437.576,95.2739 436.5,97C 431.111,98.1315 426.111,97.2982 421.5,94.5C 421.667,94.1667 421.833,93.8333 422,93.5C 426.439,95.7549 430.939,95.9215 435.5,94C 433.9,92.185 431.9,91.0183 429.5,90.5C 428.614,89.675 428.281,88.675 428.5,87.5 Z"/></g>
<g><path style="opacity:0.976" fill="#1f1f1f" d="M 637.5,87.5 C 638.785,89.0622 640.285,90.3955 642,91.5C 643.3,90.2927 644.8,89.6261 646.5,89.5C 645.741,94.6991 643.241,95.6991 639,92.5C 637.991,90.9751 637.491,89.3084 637.5,87.5 Z"/></g>
<g><path style="opacity:0.996" fill="#151515" d="M 340.5,93.5 C 346.545,93.4283 352.545,93.9283 358.5,95C 351.12,95.5084 343.786,96.3417 336.5,97.5C 336.5,96.5 336.5,95.5 336.5,94.5C 338.099,94.7678 339.432,94.4345 340.5,93.5 Z"/></g>
<g><path style="opacity:0.994" fill="#1b1b1b" d="M 332.5,100.5 C 338.262,100.149 343.928,100.649 349.5,102C 343.909,102.275 338.409,103.109 333,104.5C 329.948,103.421 329.782,102.088 332.5,100.5 Z"/></g>
<g><path style="opacity:0.964" fill="#1c1c1c" d="M 329.5,107.5 C 332.898,107.18 336.232,107.513 339.5,108.5C 335.576,109.271 331.743,110.271 328,111.5C 327.5,111 327,110.5 326.5,110C 327.571,109.148 328.571,108.315 329.5,107.5 Z"/></g>
<g><path style="opacity:0.985" fill="#181818" d="M 819.5,111.5 C 820.496,111.414 821.329,111.748 822,112.5C 823.455,115.912 825.288,119.079 827.5,122C 826.004,122.507 824.837,122.007 824,120.5C 821.962,117.757 820.462,114.757 819.5,111.5 Z"/></g>
<g><path style="opacity:0.964" fill="#0b0b0b" d="M 813.5,112.5 C 816.153,113.142 817.319,114.808 817,117.5C 815.198,116.211 814.031,114.544 813.5,112.5 Z"/></g>
<g><path style="opacity:0.979" fill="#191919" d="M 324.5,114.5 C 326.924,114.192 329.257,114.526 331.5,115.5C 328.843,116.259 326.177,116.926 323.5,117.5C 323.167,117.167 322.833,116.833 322.5,116.5C 323.243,115.818 323.909,115.151 324.5,114.5 Z"/></g>
<g><path style="opacity:0.991" fill="#131313" d="M 518.5,114.5 C 519.993,115.312 520.66,116.645 520.5,118.5C 520.573,122.073 518.906,123.24 515.5,122C 512.517,120.92 511.183,119.087 511.5,116.5C 513.193,118.027 515.027,119.36 517,120.5C 517.898,118.612 518.398,116.612 518.5,114.5 Z"/></g>
<g><path style="opacity:0.991" fill="#0e0e0e" d="M 363.5,122.5 C 371.253,122.104 378.92,122.604 386.5,124C 393.977,128.67 394.311,133.67 387.5,139C 384.093,140.227 380.593,141.06 377,141.5C 369.857,140.461 362.691,139.628 355.5,139C 362.5,138.667 369.5,138.333 376.5,138C 380.076,137.81 383.242,136.643 386,134.5C 387.325,129.812 385.491,127.312 380.5,127C 372.81,125.552 365.143,125.052 357.5,125.5C 359.282,124.016 361.282,123.016 363.5,122.5 Z"/></g>
<g><path style="opacity:0.988" fill="#161616" d="M 616.5,127.5 C 617.822,127.33 618.989,127.663 620,128.5C 621.825,133.986 619.992,136.486 614.5,136C 611.659,134.414 608.993,132.58 606.5,130.5C 606.833,130.167 607.167,129.833 607.5,129.5C 610.64,131.406 613.973,132.74 617.5,133.5C 617.167,131.5 616.833,129.5 616.5,127.5 Z"/></g>
<g><path style="opacity:0.982" fill="#111111" d="M 427.5,133.5 C 432.057,134.881 433.891,137.881 433,142.5C 431.701,143.98 430.034,144.646 428,144.5C 425.453,144.238 422.953,143.738 420.5,143C 419.007,141.844 419.174,141.01 421,140.5C 423.959,142.17 426.959,142.504 430,141.5C 429.516,138.802 428.683,136.135 427.5,133.5 Z"/></g>
<g><path style="opacity:0.992" fill="#101010" d="M 709.5,141.5 C 709.897,140.475 710.563,140.308 711.5,141C 721.702,150.892 728.035,162.892 730.5,177C 728.683,183.439 724.683,185.105 718.5,182C 714.226,177.568 710.56,172.735 707.5,167.5C 706.769,171.461 705.103,174.961 702.5,178C 699.211,178.746 696.711,177.58 695,174.5C 693.577,166.471 691.077,158.804 687.5,151.5C 687.833,151.167 688.167,150.833 688.5,150.5C 693.568,156.469 696.901,163.302 698.5,171C 699.449,171.617 700.282,171.451 701,170.5C 701.942,167.557 703.108,164.724 704.5,162C 706.167,161.333 707.833,161.333 709.5,162C 712.708,166.247 715.542,170.747 718,175.5C 723.071,180.162 725.404,179.162 725,172.5C 722.377,160.738 717.211,150.404 709.5,141.5 Z"/></g>
<g><path style="opacity:0.991" fill="#151515" d="M 764.5,142.5 C 767.058,144.55 769.558,146.883 772,149.5C 774.963,157.571 771.963,161.571 763,161.5C 759.816,161.158 757.316,159.658 755.5,157C 756.025,156.308 756.692,155.808 757.5,155.5C 761.963,158.392 766.13,158.059 770,154.5C 768.918,150.222 767.085,146.222 764.5,142.5 Z"/></g>
<g><path style="opacity:0.99" fill="#101010" d="M 816.5,143.5 C 816.56,142.957 816.893,142.624 817.5,142.5C 826.407,147.069 832.407,154.069 835.5,163.5C 833.636,169.931 829.636,171.765 823.5,169C 817.711,165.545 812.878,161.045 809,155.5C 808.312,154.668 808.479,154.002 809.5,153.5C 814.358,157.525 819.358,161.358 824.5,165C 829.542,165.621 831.376,163.455 830,158.5C 827.057,152.06 822.557,147.06 816.5,143.5 Z"/></g>
<g><path style="opacity:0.987" fill="#0e0e0e" d="M 609.5,165.5 C 609.897,164.475 610.563,164.308 611.5,165C 616.76,169.692 620.926,175.192 624,181.5C 625.828,188.845 622.994,193.178 615.5,194.5C 613.39,193.946 611.39,193.112 609.5,192C 604.284,186.965 599.618,182.131 595.5,177.5C 597.167,178.333 598.833,179.167 600.5,180C 604.5,183.333 608.5,186.667 612.5,190C 616.857,190.999 619.191,189.332 619.5,185C 618.12,177.404 614.786,170.904 609.5,165.5 Z"/></g>
<g><path style="opacity:0.993" fill="#0e0e0e" d="M 284.5,171.5 C 280.833,170.833 277.167,170.167 273.5,169.5C 283.102,167.623 292.435,168.456 301.5,172C 305.721,175.822 306.554,180.322 304,185.5C 299.387,189.854 293.887,191.521 287.5,190.5C 277.841,189.62 268.174,188.787 258.5,188C 261.647,186.872 264.98,186.372 268.5,186.5C 275.831,187.206 283.165,187.372 290.5,187C 295.475,186.853 299.141,184.686 301.5,180.5C 297.738,174.117 292.071,171.117 284.5,171.5 Z"/></g>
<g><path style="opacity:0.804" fill="#828282" d="M 273.5,169.5 C 277.167,170.167 280.833,170.833 284.5,171.5C 280.445,171.824 276.445,171.491 272.5,170.5C 272.624,169.893 272.957,169.56 273.5,169.5 Z"/></g>
<g><path style="opacity:0.99" fill="#1a1a1a" d="M 343.5,173.5 C 347.41,173.263 351.077,174.096 354.5,176C 358.008,181.435 356.508,184.602 350,185.5C 347.356,185.349 345.189,184.349 343.5,182.5C 346.447,181.679 349.447,181.179 352.5,181C 353.727,179.413 353.394,178.079 351.5,177C 348.576,176.012 345.576,175.346 342.5,175C 343.056,174.617 343.389,174.117 343.5,173.5 Z"/></g>
<g><path style="opacity:0.978" fill="#101010" d="M 872.5,174.5 C 875.041,176.44 875.041,178.607 872.5,181C 869.741,181.977 867.741,181.144 866.5,178.5C 866.833,178.167 867.167,177.833 867.5,177.5C 871.231,180.463 872.898,179.463 872.5,174.5 Z"/></g>
<g><path style="opacity:0.993" fill="#131313" d="M 204.5,180.5 C 211.284,180.08 217.95,180.58 224.5,182C 214.311,182.881 204.311,184.715 194.5,187.5C 194.238,186.022 194.571,184.689 195.5,183.5C 198.582,182.365 201.582,181.365 204.5,180.5 Z"/></g>
<g><path style="opacity:0.986" fill="#131313" d="M 203.5,190.5 C 208.628,190.112 213.628,190.612 218.5,192C 208.347,192.55 198.681,195.05 189.5,199.5C 188.5,199.167 187.833,198.5 187.5,197.5C 188.779,195.854 190.445,194.687 192.5,194C 196.333,192.966 199.999,191.8 203.5,190.5 Z"/></g>
<g><path style="opacity:0.988" fill="#121212" d="M 440.5,192.5 C 443.31,194.25 445.31,196.75 446.5,200C 447.448,200.483 448.448,200.649 449.5,200.5C 449.181,198.25 449.681,196.25 451,194.5C 452.54,196.955 452.874,199.621 452,202.5C 449.085,205.07 446.419,204.737 444,201.5C 442.82,198.479 441.654,195.479 440.5,192.5 Z"/></g>
<g><path style="opacity:0.993" fill="#0f0f0f" d="M 501.5,192.5 C 506.487,195.433 509.82,199.766 511.5,205.5C 510.035,208.799 507.702,211.299 504.5,213C 507.018,218.075 507.018,223.075 504.5,228C 498.659,230.182 493.826,228.682 490,223.5C 484.776,217.401 482.11,210.401 482,202.5C 484.363,210.722 488.863,217.556 495.5,223C 498.868,224.205 501.202,223.205 502.5,220C 500.811,216.287 499.977,212.454 500,208.5C 501.734,207.751 503.567,207.251 505.5,207C 506.081,206.107 506.415,205.107 506.5,204C 505.223,199.952 503.557,196.118 501.5,192.5 Z"/></g>
<g><path style="opacity:0.977" fill="#0a0a0a" d="M 560.5,198.5 C 564.068,199.969 564.402,202.136 561.5,205C 556.647,206.13 554.147,204.296 554,199.5C 555.026,202.693 557.192,204.026 560.5,203.5C 560.5,201.833 560.5,200.167 560.5,198.5 Z"/></g>
<g><path style="opacity:0.99" fill="#0e0e0e" d="M 772.5,199.5 C 773.077,198.227 773.743,198.227 774.5,199.5C 777.079,204.992 779.912,210.325 783,215.5C 784.789,217.229 786.956,217.896 789.5,217.5C 790.006,211.551 789.006,205.884 786.5,200.5C 787.363,198.128 788.529,198.128 790,200.5C 793.195,206.825 794.195,213.491 793,220.5C 787.75,223.747 783.417,222.747 780,217.5C 777.182,211.521 774.682,205.521 772.5,199.5 Z"/></g>
<g><path style="opacity:0.986" fill="#181818" d="M 819.5,200.5 C 820.376,200.369 821.043,200.702 821.5,201.5C 822.888,205.181 824.555,208.681 826.5,212C 827.449,212.617 828.282,212.451 829,211.5C 829.494,209.866 829.66,208.199 829.5,206.5C 833.071,206.408 834.238,208.074 833,211.5C 830.177,216.395 826.843,216.729 823,212.5C 821.829,208.482 820.663,204.482 819.5,200.5 Z"/></g>
<g><path style="opacity:0.985" fill="#131313" d="M 194.5,202.5 C 198.182,202.335 201.848,202.501 205.5,203C 200.249,204.128 195.083,205.628 190,207.5C 188.941,207.37 188.108,206.87 187.5,206C 189.858,204.724 192.192,203.558 194.5,202.5 Z"/></g>
<g><path style="opacity:0.992" fill="#111111" d="M 391.5,204.5 C 396.451,211.536 401.785,218.369 407.5,225C 417.277,231.519 422.11,229.019 422,217.5C 420.833,215.167 419.667,212.833 418.5,210.5C 419.035,208.899 420.035,208.399 421.5,209C 426.922,215.283 427.755,222.117 424,229.5C 418.849,233.998 413.349,234.498 407.5,231C 399.738,223.645 394.405,214.812 391.5,204.5 Z"/></g>
<g><path style="opacity:0.987" fill="#101010" d="M 865.5,207.5 C 866.189,206.226 867.023,206.226 868,207.5C 870.238,214.055 874.238,219.055 880,222.5C 882.291,221.876 883.457,220.376 883.5,218C 882.703,214.609 881.703,211.276 880.5,208C 880.85,206.743 881.517,206.409 882.5,207C 888.539,213.198 888.873,219.531 883.5,226C 881.5,226.667 879.5,226.667 877.5,226C 872.093,220.672 868.093,214.505 865.5,207.5 Z"/></g>
<g><path style="opacity:0.986" fill="#131313" d="M 259.5,210.5 C 263.308,210.163 266.974,210.663 270.5,212C 273.377,215.716 272.711,218.716 268.5,221C 266.833,221.667 265.167,221.667 263.5,221C 262.167,220.333 262.167,219.667 263.5,219C 269.952,218.008 270.618,216.008 265.5,213C 262.438,212.259 259.438,212.425 256.5,213.5C 256.167,213.333 255.833,213.167 255.5,213C 256.858,212.066 258.192,211.232 259.5,210.5 Z"/></g>
<g><path style="opacity:0.997" fill="#1a1a1a" d="M 576.5,211.5 C 578.89,211.685 579.89,213.018 579.5,215.5C 577.569,223.927 574.236,224.594 569.5,217.5C 569.833,217.167 570.167,216.833 570.5,216.5C 571.833,217.5 573.167,218.5 574.5,219.5C 576.229,217.149 576.896,214.482 576.5,211.5 Z"/></g>
<g><path style="opacity:0.975" fill="#202020" d="M 192.5,212.5 C 193.675,212.281 194.675,212.614 195.5,213.5C 190.51,215.497 185.51,217.497 180.5,219.5C 179.261,217.993 179.595,216.826 181.5,216C 185.333,214.966 188.999,213.8 192.5,212.5 Z"/></g>
<g><path style="opacity:0.985" fill="#0e0e0e" d="M 321.5,235.5 C 326.458,236.396 330.624,238.729 334,242.5C 334.978,245.669 334.478,248.503 332.5,251C 328.739,251.738 325.072,251.405 321.5,250C 319.129,247.294 316.463,244.961 313.5,243C 314.5,242.333 315.5,242.333 316.5,243C 319.371,244.935 322.371,246.601 325.5,248C 329.667,249.167 331.167,247.667 330,243.5C 326.62,241.283 323.787,238.616 321.5,235.5 Z"/></g>
<g><path style="opacity:0.992" fill="#101010" d="M 263.5,246.5 C 270.929,247.274 277.929,249.441 284.5,253C 289.119,259.461 287.452,263.794 279.5,266C 269.114,267.154 259.447,264.987 250.5,259.5C 249.479,258.998 249.312,258.332 250,257.5C 259.507,261.669 269.341,262.836 279.5,261C 281.18,260.653 282.18,259.653 282.5,258C 281.513,255.679 279.846,254.013 277.5,253C 273.064,250.891 268.397,249.724 263.5,249.5C 263.5,248.5 263.5,247.5 263.5,246.5 Z"/></g>
<g><path style="opacity:0.999" fill="#fbfafa" d="M 538.5,676.5 C 538.5,677.167 538.167,677.5 537.5,677.5C 532.011,607.876 537.345,539.043 553.5,471C 553.37,469.941 552.87,469.108 552,468.5C 547.329,473.832 543.663,479.832 541,486.5C 536.93,498.038 533.43,509.705 530.5,521.5C 529.549,520.081 529.216,518.415 529.5,516.5C 530.597,499.753 533.263,483.253 537.5,467C 537.167,466.167 536.833,465.333 536.5,464.5C 531.583,471.045 528.083,478.379 526,486.5C 520.256,508.392 515.089,530.392 510.5,552.5C 509.833,552.5 509.5,552.167 509.5,551.5C 511.678,522.088 515.678,492.921 521.5,464C 520.99,462.174 520.156,462.007 519,463.5C 515.191,470.121 512.191,477.121 510,484.5C 501.073,514.634 494.907,545.301 491.5,576.5C 490.539,574.735 490.205,572.735 490.5,570.5C 491.537,533.601 494.703,496.934 500,460.5C 495.624,468.991 492.624,477.991 491,487.5C 487.1,509.498 483.267,531.498 479.5,553.5C 478.662,553.158 478.328,552.492 478.5,551.5C 478.175,520.498 480.175,489.665 484.5,459C 484.167,458.5 483.833,458 483.5,457.5C 479.103,462.295 476.269,467.961 475,474.5C 470.947,501.483 467.114,528.483 463.5,555.5C 462.505,543.345 462.171,531.011 462.5,518.5C 462.486,498.01 464.153,477.676 467.5,457.5C 466.833,456.167 466.167,456.167 465.5,457.5C 457.29,478.047 452.457,499.38 451,521.5C 450.077,535.487 449.411,549.487 449,563.5C 447.121,532.18 447.121,500.846 449,469.5C 454.7,432.367 463.7,396.033 476,360.5C 486.252,343.665 496.252,326.665 506,309.5C 510.573,302.256 515.907,295.59 522,289.5C 513.685,308.476 505.019,327.476 496,346.5C 493.534,352.732 491.367,359.066 489.5,365.5C 489.808,366.308 490.308,366.975 491,367.5C 501.538,344.649 514.871,323.649 531,304.5C 525.505,319.982 520.172,335.648 515,351.5C 512.848,357.404 512.348,363.404 513.5,369.5C 521.605,344.279 534.105,321.612 551,301.5C 552.644,304.311 554.81,306.644 557.5,308.5C 549.864,316.308 544.03,325.308 540,335.5C 536.333,345.833 532.667,356.167 529,366.5C 528.179,369.554 528.345,372.554 529.5,375.5C 543.271,339.788 564.271,309.788 592.5,285.5C 585.682,293.827 579.849,302.827 575,312.5C 566.118,330.93 557.784,349.597 550,368.5C 548.637,372.761 548.304,377.095 549,381.5C 570.164,332.333 601.998,291.499 644.5,259C 645.759,258.018 647.092,257.685 648.5,258C 611.55,289.389 585.717,328.222 571,374.5C 569.516,378.754 568.849,383.087 569,387.5C 591.543,345.634 620.043,308.134 654.5,275C 656.691,273.081 659.024,271.747 661.5,271C 654.261,277.569 647.761,284.735 642,292.5C 625.083,316.105 609.749,340.772 596,366.5C 593.236,372.802 590.903,379.136 589,385.5C 612.025,348.461 639.525,314.961 671.5,285C 674.833,282.667 678.167,280.333 681.5,278C 682.167,277.333 682.833,277.333 683.5,278C 633.181,331.428 596.347,393.261 573,463.5C 556.838,512.642 546.171,562.975 541,614.5C 539.404,635.138 538.57,655.805 538.5,676.5 Z"/></g>
<g><path style="opacity:0.992" fill="#0f0f0f" d="M 170.5,270.5 C 179.267,269.648 187.601,271.148 195.5,275C 197.028,277.881 196.362,280.214 193.5,282C 190.899,282.92 188.232,283.587 185.5,284C 190.552,285.058 195.552,286.391 200.5,288C 207.875,291.725 209.208,296.892 204.5,303.5C 202.287,305.774 199.621,307.274 196.5,308C 179.322,309.206 163.322,305.373 148.5,296.5C 147.167,295.833 147.167,295.167 148.5,294.5C 163.747,301.541 179.747,304.375 196.5,303C 202.276,301.637 203.61,298.637 200.5,294C 196.07,291.912 191.404,290.579 186.5,290C 175.433,284.165 176.1,279.832 188.5,277C 181.391,273.875 174.057,273.042 166.5,274.5C 165.479,273.998 165.312,273.332 166,272.5C 167.622,271.901 169.122,271.234 170.5,270.5 Z"/></g>
<g><path style="opacity:0.984" fill="#181818" d="M 232.5,274.5 C 238.447,273.03 242.447,275.03 244.5,280.5C 244.471,282.029 243.804,283.196 242.5,284C 239.208,284.936 236.208,284.436 233.5,282.5C 236.086,281.52 238.753,281.187 241.5,281.5C 241.67,280.178 241.337,279.011 240.5,278C 237.399,277.362 234.732,276.195 232.5,274.5 Z"/></g>
<g><path style="opacity:0.999" fill="#fbfbfb" d="M 377.5,612.5 C 377.795,614.735 377.461,616.735 376.5,618.5C 369.362,572.041 366.862,525.375 369,478.5C 366.209,483.428 364.542,488.761 364,494.5C 357.845,536.319 356.012,578.319 358.5,620.5C 358.5,621.167 358.167,621.5 357.5,621.5C 350.964,577.033 348.13,532.366 349,487.5C 346.498,496.677 344.832,506.01 344,515.5C 342.501,536.15 341.334,556.816 340.5,577.5C 339.833,587.833 339.167,598.167 338.5,608.5C 332.291,570.04 329.791,531.373 331,492.5C 328.339,497.486 326.672,502.819 326,508.5C 323.907,532.138 322.24,555.805 321,579.5C 317.468,558.651 315.634,537.651 315.5,516.5C 315.666,511.489 315.499,506.489 315,501.5C 314.59,502.901 314.09,504.234 313.5,505.5C 310.773,516.319 309.439,527.319 309.5,538.5C 308.833,544.167 308.167,549.833 307.5,555.5C 303.782,535.576 300.449,515.576 297.5,495.5C 297.933,491.958 298.933,492.125 300.5,496C 308.074,498.962 312.908,496.462 315,488.5C 320.689,475.035 319.356,462.369 311,450.5C 308.961,448.126 306.628,446.126 304,444.5C 307.578,417.703 312.244,391.037 318,364.5C 322.586,351.33 328.253,338.663 335,326.5C 335.654,325.304 336.154,325.304 336.5,326.5C 330.037,345.849 326.037,365.682 324.5,386C 324.833,389.167 325.167,392.333 325.5,395.5C 327.22,386.288 329.72,377.288 333,368.5C 339.814,353.048 346.814,337.714 354,322.5C 352.207,338.592 349.54,354.592 346,370.5C 344.725,376.793 344.392,383.126 345,389.5C 352.115,364.609 361.448,340.609 373,317.5C 370.206,336.923 366.539,356.256 362,375.5C 361.333,379.167 361.333,382.833 362,386.5C 368.945,364.67 377.279,343.337 387,322.5C 385.818,339.287 383.484,355.953 380,372.5C 379.333,375.833 379.333,379.167 380,382.5C 385.981,365.227 391.981,347.893 398,330.5C 403.429,317.292 411.096,305.626 421,295.5C 409.183,319.734 401.516,345.401 398,372.5C 397.175,376.211 397.341,379.878 398.5,383.5C 406.69,353.122 420.19,325.456 439,300.5C 430.641,323.573 422.641,346.907 415,370.5C 413.637,374.761 413.304,379.095 414,383.5C 415,380.167 416,376.833 417,373.5C 427.078,353.675 437.412,334.009 448,314.5C 443.95,331.35 438.95,348.017 433,364.5C 431.194,369.378 430.527,374.378 431,379.5C 440.644,358.207 450.311,336.874 460,315.5C 464.519,307.31 470.186,299.977 477,293.5C 464.335,316.191 454.335,340.191 447,365.5C 445.782,370.455 445.449,375.455 446,380.5C 457.016,347.783 473.683,318.45 496,292.5C 501.708,287.123 507.708,282.123 514,277.5C 492.89,304.365 476.89,334.365 466,367.5C 440.895,439.792 430.228,514.126 434,590.5C 438.349,621.245 444.349,651.579 452,681.5C 446.143,668.596 441.476,655.263 438,641.5C 428.103,605.618 421.936,569.118 419.5,532C 420.503,515.974 421.836,499.974 423.5,484C 423.596,481.625 423.096,479.459 422,477.5C 417.609,486.34 414.609,495.673 413,505.5C 409.59,528.722 407.257,552.055 406,575.5C 403.463,543.125 403.13,510.791 405,478.5C 403.284,481.64 401.951,484.973 401,488.5C 395.281,520.585 391.615,552.919 390,585.5C 386.716,551.906 384.716,518.239 384,484.5C 381.406,493.321 379.74,502.321 379,511.5C 376.704,545.147 376.204,578.814 377.5,612.5 Z"/></g>
<g><path style="opacity:0.823" fill="#000000" d="M 768.5,295.5 C 769.873,295.343 771.207,295.51 772.5,296C 775.057,298.892 777.224,302.059 779,305.5C 782.429,316.645 785.096,327.978 787,339.5C 788.054,345.87 790.888,351.204 795.5,355.5C 797.302,350.718 797.469,345.718 796,340.5C 793.138,330.941 789.305,321.775 784.5,313C 785.501,310.498 787.167,309.998 789.5,311.5C 798.262,322.863 803.595,335.696 805.5,350C 805.615,356.449 803.615,362.116 799.5,367C 797.833,367.667 796.167,367.667 794.5,367C 789.125,362.961 785.291,357.794 783,351.5C 779.846,338.277 777.18,324.944 775,311.5C 773.073,305.991 770.906,300.658 768.5,295.5 Z"/></g>
<g><path style="opacity:0.997" fill="#f7f7f7" d="M 328.5,299.5 C 321.939,321.379 315.772,343.712 310,366.5C 305.605,391.205 301.105,415.871 296.5,440.5C 292.305,440.319 288.805,438.653 286,435.5C 288.248,417.93 291.915,400.596 297,383.5C 302.595,363.38 308.595,343.38 315,323.5C 318.764,314.96 323.264,306.96 328.5,299.5 Z"/></g>
<g><path style="opacity:0.982" fill="#101010" d="M 141.5,314.5 C 144.85,314.335 148.183,314.502 151.5,315C 156.201,320.764 154.868,324.764 147.5,327C 144.773,327.818 142.106,327.652 139.5,326.5C 142.758,325.147 146.092,323.98 149.5,323C 151.922,320.888 151.922,318.888 149.5,317C 145.134,316.637 140.801,316.637 136.5,317C 138.315,316.243 139.981,315.41 141.5,314.5 Z"/></g>
<g><path style="opacity:0.784" fill="#000000" d="M 953.5,329.5 C 955.903,329.393 957.736,330.393 959,332.5C 963.032,338.359 963.366,344.359 960,350.5C 955.464,354.461 950.964,354.461 946.5,350.5C 942.615,345.843 940.281,340.51 939.5,334.5C 940.873,334.343 942.207,334.51 943.5,335C 945.564,339.888 948.564,344.055 952.5,347.5C 954.505,346.663 955.505,345.163 955.5,343C 954.451,339.566 953.118,336.233 951.5,333C 951.978,331.697 952.645,330.531 953.5,329.5 Z"/></g>
<g><path style="opacity:0.996" fill="#f5f5f5" d="M 281.5,413.5 C 280.833,417.833 280.167,422.167 279.5,426.5C 276.491,422.493 273.491,418.493 270.5,414.5C 276.507,384.821 285.673,356.154 298,328.5C 293.375,346.336 289.042,364.336 285,382.5C 282.992,392.742 281.825,403.075 281.5,413.5 Z"/></g>
<g><path style="opacity:0.977" fill="#161616" d="M 117.5,345.5 C 119.527,345.338 121.527,345.505 123.5,346C 126.08,348.12 126.08,350.287 123.5,352.5C 122.167,353.167 120.833,353.833 119.5,354.5C 119.167,354 118.833,353.5 118.5,353C 120.706,351.75 122.039,349.916 122.5,347.5C 120.473,347.662 118.473,347.495 116.5,347C 117.056,346.617 117.389,346.117 117.5,345.5 Z"/></g>
<g><path style="opacity:0.81" fill="#000000" d="M 882.5,359.5 C 883.496,359.414 884.329,359.748 885,360.5C 890.79,373.871 895.79,387.538 900,401.5C 902.161,406.492 904.828,411.159 908,415.5C 908.667,411.833 908.667,408.167 908,404.5C 905.571,395.212 902.737,386.045 899.5,377C 899.862,375.115 901.029,374.281 903,374.5C 904.326,374.755 905.326,375.422 906,376.5C 909.934,386.637 913.268,396.97 916,407.5C 917.702,414.245 916.202,420.078 911.5,425C 909.5,425.667 907.5,425.667 905.5,425C 901.54,420.362 898.373,415.195 896,409.5C 891.554,393.551 886.721,377.718 881.5,362C 881.743,361.098 882.077,360.265 882.5,359.5 Z"/></g>
<g><path style="opacity:0.997" fill="#f4f4f4" d="M 269.5,359.5 C 270.152,360.449 270.486,361.615 270.5,363C 268.784,380.137 267.451,397.304 266.5,414.5C 262.144,412.882 257.811,411.382 253.5,410C 256.25,404.754 258.416,399.254 260,393.5C 262.667,382.004 265.833,370.67 269.5,359.5 Z"/></g>
<g><path style="opacity:0.998" fill="#f9f9f9" d="M 231.5,400.5 C 231.5,402.833 231.5,405.167 231.5,407.5C 228.615,407.194 225.948,407.527 223.5,408.5C 222.167,408.5 220.833,408.5 219.5,408.5C 220.808,392.408 225.641,377.408 234,363.5C 232.072,375.697 231.239,388.03 231.5,400.5 Z"/></g>
<g><path style="opacity:0.996" fill="#eeeeee" d="M 212.5,365.5 C 212.637,379.3 212.804,393.3 213,407.5C 210.667,406.167 208.333,404.833 206,403.5C 206.352,390.542 208.518,377.875 212.5,365.5 Z"/></g>
<g><path style="opacity:0.988" fill="#f1f1f1" d="M 198.5,371.5 C 198.356,379.67 198.523,388.003 199,396.5C 196.451,393.235 194.284,389.735 192.5,386C 194.375,381.088 196.375,376.255 198.5,371.5 Z"/></g>
<g><path style="opacity:0.99" fill="#131313" d="M 150.5,374.5 C 155.248,374.275 159.915,374.775 164.5,376C 166.444,378.153 166.944,380.653 166,383.5C 161.243,386.816 156.076,387.816 150.5,386.5C 154.629,384.797 158.629,382.797 162.5,380.5C 161.91,379.201 160.91,378.368 159.5,378C 154.842,376.55 150.176,376.217 145.5,377C 147.315,376.243 148.981,375.41 150.5,374.5 Z"/></g>
<g><path style="opacity:0.996" fill="#efefef" d="M 248.5,378.5 C 249.018,388.581 250.018,398.748 251.5,409C 251.167,409.5 250.833,410 250.5,410.5C 245.733,409.934 241.067,408.934 236.5,407.5C 241.29,398.121 245.29,388.454 248.5,378.5 Z"/></g>
<g><path style="opacity:0.998" fill="#c51329" d="M 881.5,877.5 C 875.815,871.305 870.648,864.638 866,857.5C 851.863,840.534 834.029,829.534 812.5,824.5C 809.01,806.015 800.676,790.182 787.5,777C 773.004,766.915 758.004,757.582 742.5,749C 732.126,739.624 721.46,730.624 710.5,722C 707.134,719.816 703.467,718.483 699.5,718C 692.833,717.667 686.167,717.333 679.5,717C 678.167,716.333 676.833,715.667 675.5,715C 661.288,701.788 648.121,687.622 636,672.5C 631.093,666.922 625.593,662.089 619.5,658C 612.377,653.205 605.043,652.539 597.5,656C 592.852,662.284 592.185,669.117 595.5,676.5C 589.573,678.465 583.906,680.965 578.5,684C 574.996,687.184 572.663,691.018 571.5,695.5C 565.299,696.683 559.799,699.35 555,703.5C 554.667,702.833 554.333,702.167 554,701.5C 549.75,679.034 548.416,656.367 550,633.5C 552.247,613.117 554.914,592.783 558,572.5C 565.027,528.714 576.86,486.381 593.5,445.5C 660.62,405.413 731.954,395.913 807.5,417C 887.489,443.322 943.322,495.489 975,573.5C 1006.16,665.383 992.829,750.05 935,827.5C 919.511,846.828 901.677,863.494 881.5,877.5 Z"/></g>
<g><path style="opacity:0.761" fill="#b2b2b2" d="M 231.5,400.5 C 232.473,402.948 232.806,405.615 232.5,408.5C 229.5,408.5 226.5,408.5 223.5,408.5C 225.948,407.527 228.615,407.194 231.5,407.5C 231.5,405.167 231.5,402.833 231.5,400.5 Z"/></g>
<g><path style="opacity:0.776" fill="#7f7f7f" d="M 281.5,413.5 C 281.827,418.214 281.493,422.88 280.5,427.5C 279.893,427.376 279.56,427.043 279.5,426.5C 280.167,422.167 280.833,417.833 281.5,413.5 Z"/></g>
<g><path style="opacity:0.991" fill="#141414" d="M 127.5,422.5 C 131.41,422.263 135.077,423.096 138.5,425C 142.737,429.061 142.403,432.728 137.5,436C 132.647,438.304 127.647,439.138 122.5,438.5C 122.667,438.167 122.833,437.833 123,437.5C 126.963,436.4 130.797,434.9 134.5,433C 136.211,431.867 136.711,430.367 136,428.5C 133.243,426.973 130.243,426.307 127,426.5C 122.492,427.051 117.992,427.218 113.5,427C 118.184,425.17 122.851,423.67 127.5,422.5 Z"/></g>
<g><path style="opacity:0.993" fill="#0d0d0d" d="M 221.5,425.5 C 227.176,425.334 232.843,425.501 238.5,426C 249.804,430.588 252.138,437.921 245.5,448C 243.283,449.275 240.949,450.275 238.5,451C 232.722,451.094 227.056,451.761 221.5,453C 220.978,453.561 220.645,454.228 220.5,455C 224.053,461.376 222.72,466.376 216.5,470C 212.833,470.667 209.167,470.667 205.5,470C 197.68,467.782 190.013,465.282 182.5,462.5C 183.667,462.167 184.833,461.833 186,461.5C 195.578,462.942 205.078,464.442 214.5,466C 216.736,465.266 218.069,463.766 218.5,461.5C 217.304,458.942 215.97,456.442 214.5,454C 214.99,452.018 215.99,450.351 217.5,449C 225.681,446.458 234.014,444.624 242.5,443.5C 245.278,437.851 243.611,433.685 237.5,431C 228.642,428.953 219.642,427.953 210.5,428C 214.169,426.907 217.836,426.074 221.5,425.5 Z"/></g>
<g><path style="opacity:0.988" fill="#1b1b1b" d="M 107.5,465.5 C 110.862,465.07 113.695,466.07 116,468.5C 116.835,472.706 115.002,474.706 110.5,474.5C 109.5,474.167 108.5,473.833 107.5,473.5C 109.483,471.976 111.816,470.976 114.5,470.5C 114.023,469.522 113.357,468.689 112.5,468C 110.167,467.667 107.833,467.333 105.5,467C 106.416,466.722 107.082,466.222 107.5,465.5 Z"/></g>
<g><path style="opacity:0.965" fill="#191919" d="M 56.5,468.5 C 57.8734,468.343 59.2068,468.51 60.5,469C 56.4626,470.537 52.796,472.704 49.5,475.5C 49.1667,475.167 48.8333,474.833 48.5,474.5C 50.8388,472.004 53.5055,470.004 56.5,468.5 Z"/></g>
<g><path style="opacity:0.981" fill="#1a1a1a" d="M 56.5,474.5 C 57.8734,474.343 59.2068,474.51 60.5,475C 55.0362,476.814 50.5362,479.98 47,484.5C 45.1645,482.273 45.6645,480.44 48.5,479C 51.0993,477.205 53.7659,475.705 56.5,474.5 Z"/></g>
<g><path style="opacity:0.998" fill="#f9f9f9" d="M 281.5,474.5 C 284.545,474.342 287.379,475.009 290,476.5C 288.359,557.655 300.692,636.655 327,713.5C 333.29,728.408 340.29,742.742 348,756.5C 333.567,740.982 323.234,722.982 317,702.5C 314.667,694.833 312.333,687.167 310,679.5C 300.293,636.672 289.959,594.005 279,551.5C 278.667,551.167 278.333,550.833 278,550.5C 277.333,555.167 277.333,559.833 278,564.5C 280.768,587.531 283.434,610.531 286,633.5C 278.822,608.116 271.656,582.782 264.5,557.5C 264.167,558.333 263.833,559.167 263.5,560C 264.881,578.536 266.381,597.036 268,615.5C 261.918,597.086 255.751,578.752 249.5,560.5C 249.167,561.333 248.833,562.167 248.5,563C 252.835,597.67 259.335,631.836 268,665.5C 260.667,644.167 253.333,622.833 246,601.5C 241.963,589.717 236.963,578.384 231,567.5C 230.833,568.5 230.667,569.5 230.5,570.5C 232.426,589.573 234.593,608.573 237,627.5C 228.704,606.757 220.537,586.091 212.5,565.5C 211.338,570.467 211.171,575.467 212,580.5C 217.472,599.386 222.138,618.386 226,637.5C 215.357,614.571 205.69,591.238 197,567.5C 199.241,582.208 202.074,596.875 205.5,611.5C 205.263,614.063 204.763,614.063 204,611.5C 197.316,596.136 190.649,580.803 184,565.5C 183.308,566.025 182.808,566.692 182.5,567.5C 185.108,581.146 187.275,594.813 189,608.5C 183.567,594.439 178.9,580.106 175,565.5C 172.749,557.992 171.582,550.325 171.5,542.5C 177.232,542.283 182.899,542.783 188.5,544C 198.5,549.333 208.5,554.667 218.5,560C 232.839,562.995 238.672,557.162 236,542.5C 232.544,532.044 225.877,524.377 216,519.5C 214.248,508.162 218.748,500.662 229.5,497C 239.181,497.449 248.848,498.116 258.5,499C 261.562,497.939 264.062,496.106 266,493.5C 268.194,489.251 270.194,484.918 272,480.5C 274.843,477.837 278.009,475.837 281.5,474.5 Z"/></g>
<g><path style="opacity:0.99" fill="#0f0f0f" d="M 141.5,482.5 C 149.066,481.716 156.4,483.216 163.5,487C 171.519,495.943 169.686,501.443 158,503.5C 151.441,502.868 145.275,501.035 139.5,498C 141.667,497.833 143.833,497.667 146,497.5C 150.836,498.127 155.669,498.294 160.5,498C 163.167,495.667 163.167,493.333 160.5,491C 154.381,487.606 148.048,484.772 141.5,482.5 Z"/></g>
<g><path style="opacity:0.938" fill="#171717" d="M 50.5,484.5 C 51.552,484.351 52.552,484.517 53.5,485C 50.228,486.608 47.228,488.608 44.5,491C 43.6683,491.688 43.0016,491.521 42.5,490.5C 45.2347,488.479 47.9014,486.479 50.5,484.5 Z"/></g>
<g><path style="opacity:0.967" fill="#1d1d1d" d="M 46.5,494.5 C 47.3764,494.369 48.0431,494.702 48.5,495.5C 45.8333,497.5 43.1667,499.5 40.5,501.5C 39.479,500.998 39.3123,500.332 40,499.5C 42.3256,497.934 44.4922,496.268 46.5,494.5 Z"/></g>
<g><path style="opacity:0.971" fill="#181818" d="M 42.5,504.5 C 43.8734,504.343 45.2068,504.51 46.5,505C 44.4655,507.315 42.1322,508.148 39.5,507.5C 40.7701,506.712 41.7701,505.712 42.5,504.5 Z"/></g>
<g><path style="opacity:0.821" fill="#454545" d="M 315.5,516.5 C 314.833,512.833 314.167,509.167 313.5,505.5C 314.09,504.234 314.59,502.901 315,501.5C 315.499,506.489 315.666,511.489 315.5,516.5 Z"/></g>
<g><path style="opacity:0.995" fill="#0c0c0c" d="M 87.5,517.5 C 99.3883,518.494 107.388,524.827 111.5,536.5C 111.563,538.481 110.896,540.148 109.5,541.5C 105.223,542.606 100.89,542.772 96.5,542C 92.5643,540.453 89.0643,538.287 86,535.5C 83.276,536.163 82.776,537.663 84.5,540C 84.5211,543.499 82.8544,545.332 79.5,545.5C 74.1415,544.313 69.6415,541.647 66,537.5C 65.2506,536.365 65.4173,535.365 66.5,534.5C 70.6995,537.775 75.3662,539.609 80.5,540C 78.8399,537.367 78.3399,534.534 79,531.5C 79.804,530.196 80.9707,529.529 82.5,529.5C 87.8249,531.319 92.8249,533.819 97.5,537C 100.126,537.995 102.793,538.328 105.5,538C 106.517,536.951 106.684,535.784 106,534.5C 101.62,526.956 95.4533,521.289 87.5,517.5 Z"/></g>
<g><path style="opacity:1" fill="#c5a1a5" d="M 529.5,516.5 C 529.216,518.415 529.549,520.081 530.5,521.5C 529.671,524.815 528.838,528.148 528,531.5C 527.612,526.294 528.112,521.294 529.5,516.5 Z"/></g>
<g><path style="opacity:0.761" fill="#676767" d="M 462.5,518.5 C 462.171,531.011 462.505,543.345 463.5,555.5C 463.539,556.756 463.039,557.756 462,558.5C 461.173,544.994 461.34,531.66 462.5,518.5 Z"/></g>
<g><path style="opacity:0.997" fill="#f8f8f8" d="M 166.5,714.5 C 143.538,679.574 125.038,642.241 111,602.5C 111.941,619.273 115.274,635.606 121,651.5C 128.23,672.691 136.73,693.357 146.5,713.5C 136.366,700.688 127.533,686.355 120,670.5C 111.558,652.674 104.391,634.341 98.5,615.5C 98.9957,625.49 100.496,635.49 103,645.5C 107.897,665.511 113.564,685.177 120,704.5C 108.705,683.91 99.0387,662.577 91,640.5C 92.3667,632.947 92.7,625.28 92,617.5C 89.5606,605.848 85.7272,594.682 80.5,584C 82.097,580.069 84.7637,577.069 88.5,575C 98.8578,568.927 109.858,567.261 121.5,570C 128.833,573 136.167,576 143.5,579C 154.866,582.283 160.366,578.117 160,566.5C 159.117,563.898 157.617,561.731 155.5,560C 152.167,558 148.833,556 145.5,554C 151.737,549.197 158.737,546.03 166.5,544.5C 181.228,627.529 210.061,705.196 253,777.5C 259.1,787.366 265.934,796.699 273.5,805.5C 270.178,803.736 267.011,801.07 264,797.5C 250.513,780.524 237.513,763.191 225,745.5C 216.473,729.779 208.473,713.779 201,697.5C 187.724,663.673 174.058,630.006 160,596.5C 160.683,607.602 162.35,618.602 165,629.5C 167.511,638.548 169.844,647.548 172,656.5C 163.547,636.926 154.547,617.593 145,598.5C 146.425,609.954 148.758,621.287 152,632.5C 156.837,648.671 161.837,664.671 167,680.5C 153.177,656.185 141.51,630.852 132,604.5C 131.417,602.998 130.584,601.665 129.5,600.5C 129.95,611.267 131.783,621.933 135,632.5C 143.571,660.631 154.071,687.964 166.5,714.5 Z"/></g>
<g><path style="opacity:0.796" fill="#5d5d5d" d="M 478.5,551.5 C 478.328,552.492 478.662,553.158 479.5,553.5C 479.108,555.179 478.608,556.846 478,558.5C 477.204,555.961 477.371,553.628 478.5,551.5 Z"/></g>
<g><path style="opacity:1" fill="#845d62" d="M 509.5,551.5 C 509.5,552.167 509.833,552.5 510.5,552.5C 510.162,554.854 509.662,557.187 509,559.5C 508.199,556.633 508.366,553.966 509.5,551.5 Z"/></g>
<g><path style="opacity:0.788" fill="#c9c9c9" d="M 309.5,538.5 C 309.666,547.506 309.5,556.506 309,565.5C 308.661,562.12 308.161,558.787 307.5,555.5C 308.167,549.833 308.833,544.167 309.5,538.5 Z"/></g>
<g><path style="opacity:1" fill="#8f6c70" d="M 490.5,570.5 C 490.205,572.735 490.539,574.735 491.5,576.5C 490.965,580.819 490.465,585.152 490,589.5C 489.18,582.986 489.347,576.653 490.5,570.5 Z"/></g>
<g><path style="opacity:0.761" fill="#ababab" d="M 340.5,577.5 C 340.667,590.171 340.5,602.838 340,615.5C 339.56,613.134 339.06,610.801 338.5,608.5C 339.167,598.167 339.833,587.833 340.5,577.5 Z"/></g>
<g><path style="opacity:0.757" fill="#969696" d="M 377.5,612.5 C 378.598,618.001 379.098,623.667 379,629.5C 377.844,625.909 377.011,622.242 376.5,618.5C 377.461,616.735 377.795,614.735 377.5,612.5 Z"/></g>
<g><path style="opacity:0.997" fill="#f6f6f6" d="M 55.5,625.5 C 57.1439,625.286 58.6439,625.62 60,626.5C 62.3333,634.833 64.6667,643.167 67,651.5C 74.8638,711.479 95.1972,766.479 128,816.5C 111.493,800.318 98.4934,781.652 89,760.5C 84.6085,750.659 80.6085,740.659 77,730.5C 67.8646,701.427 58.5312,672.427 49,643.5C 51.6874,668.461 55.5207,693.295 60.5,718C 60.0556,719.762 59.5556,719.595 59,717.5C 53.4491,701.513 47.1157,685.846 40,670.5C 42.4056,691.533 46.2389,712.366 51.5,733C 51.0556,734.762 50.5556,734.595 50,732.5C 43.1392,716.416 36.9725,700.083 31.5,683.5C 31.7618,666.786 35.9285,651.119 44,636.5C 47.0703,631.927 50.9036,628.261 55.5,625.5 Z"/></g>
<g><path style="opacity:0.816" fill="#626262" d="M 358.5,620.5 C 359.629,622.628 359.796,624.961 359,627.5C 358.495,625.482 357.995,623.482 357.5,621.5C 358.167,621.5 358.5,621.167 358.5,620.5 Z"/></g>
<g><path style="opacity:0.996" fill="#f6f6f6" d="M 73.5,642.5 C 73.56,641.957 73.8933,641.624 74.5,641.5C 78.6029,644.041 82.7696,644.041 87,641.5C 93.6219,669.021 101.622,696.021 111,722.5C 95.4949,697.161 82.9949,670.494 73.5,642.5 Z"/></g>
<g><path style="opacity:1" fill="#fdfdfd" d="M 587.5,698.5 C 585.5,697.833 583.5,697.167 581.5,696.5C 583.253,694.777 585.253,693.277 587.5,692C 593.074,690.285 598.74,688.952 604.5,688C 605.931,687.535 607.097,686.701 608,685.5C 608.667,682.833 608.667,680.167 608,677.5C 605.944,673.732 604.778,669.732 604.5,665.5C 612.314,666.24 618.981,669.407 624.5,675C 636.75,687.912 648.25,701.412 659,715.5C 668.29,726.456 680.124,730.956 694.5,729C 702.67,731.085 710.004,734.752 716.5,740C 723.871,747.04 731.538,753.706 739.5,760C 752.833,768 766.167,776 779.5,784C 784.746,788.575 789.246,793.742 793,799.5C 799.199,815.1 805.199,830.766 811,846.5C 813.748,851.252 817.248,855.419 821.5,859C 823.025,860.009 824.692,860.509 826.5,860.5C 826.649,859.448 826.483,858.448 826,857.5C 818.617,850.71 813.784,842.71 811.5,833.5C 833.085,840.594 850.585,853.261 864,871.5C 877.072,888.642 889.406,906.309 901,924.5C 907.07,932.244 914.57,938.077 923.5,942C 921.884,943.077 920.051,943.577 918,943.5C 910.031,942.289 902.197,940.456 894.5,938C 884.074,935.347 875.241,937.847 868,945.5C 865.037,940.955 863.037,935.955 862,930.5C 857.98,921.154 851.813,913.654 843.5,908C 839.571,905.919 835.737,906.086 832,908.5C 828.784,902.753 824.618,897.753 819.5,893.5C 818.417,894.365 818.251,895.365 819,896.5C 825.433,904.297 828.6,913.297 828.5,923.5C 828.345,931.443 826.845,939.11 824,946.5C 822.938,947.899 821.605,948.899 820,949.5C 814.618,943.923 809.118,938.423 803.5,933C 792.8,928.992 781.8,925.992 770.5,924C 768.004,922.92 765.67,921.586 763.5,920C 758.46,914.094 754.294,907.594 751,900.5C 740.723,889.734 728.056,884.401 713,884.5C 705.247,884.567 697.914,886.233 691,889.5C 688.085,884.002 684.919,878.668 681.5,873.5C 682.805,880.374 684.638,887.374 687,894.5C 690.199,900.234 692.865,906.234 695,912.5C 696.569,917.625 695.069,921.459 690.5,924C 685.704,924.91 681.037,926.243 676.5,928C 673.268,932.309 670.434,936.809 668,941.5C 661.931,937.88 655.764,934.38 649.5,931C 641.616,929.07 633.616,927.737 625.5,927C 622.624,926.562 619.957,925.562 617.5,924C 606.468,915.148 594.468,907.814 581.5,902C 578.269,896.101 574.269,890.768 569.5,886C 568.552,885.517 567.552,885.351 566.5,885.5C 566.351,886.552 566.517,887.552 567,888.5C 578.293,901.965 580.96,916.965 575,933.5C 573.534,935.325 571.701,935.825 569.5,935C 566.202,930.7 562.535,926.7 558.5,923C 553.959,921.886 549.959,922.886 546.5,926C 539.743,927.274 535.576,924.441 534,917.5C 528.65,895.484 514.816,882.318 492.5,878C 487.665,876.086 483.331,873.419 479.5,870C 467.124,864.167 455.791,865.667 445.5,874.5C 439.553,866.713 433.387,859.047 427,851.5C 435.189,870.184 446.189,887.184 460,902.5C 471.098,917.887 475.098,934.887 472,953.5C 471.22,956.512 470.053,959.345 468.5,962C 467.551,962.617 466.718,962.451 466,961.5C 464.783,952.283 459.616,947.116 450.5,946C 445.467,945.829 440.467,945.329 435.5,944.5C 433.735,941.291 431.735,938.291 429.5,935.5C 428.28,935.887 427.613,936.72 427.5,938C 433.393,948.986 433.893,960.153 429,971.5C 428.261,972.574 427.261,973.241 426,973.5C 420.539,968.602 414.206,965.269 407,963.5C 401.24,965.852 395.24,967.186 389,967.5C 376.846,966.175 364.68,965.009 352.5,964C 341.407,958.295 330.074,952.962 318.5,948C 310.791,944.781 303.125,944.781 295.5,948C 289.448,953.053 283.115,957.719 276.5,962C 269.342,965.412 262.342,969.078 255.5,973C 246.756,980.824 241.756,990.49 240.5,1002C 236.191,1001.51 231.857,1001.17 227.5,1001C 219.503,1005.49 215.503,1012.33 215.5,1021.5C 215.829,1025.94 216.329,1030.27 217,1034.5C 193.371,1013.87 170.705,992.205 149,969.5C 137.512,955.071 129.845,938.737 126,920.5C 122.244,911.98 117.244,904.313 111,897.5C 97.9705,884.804 85.3038,871.804 73,858.5C 66.4155,851.074 61.2488,842.741 57.5,833.5C 57.9767,832.522 58.6433,831.689 59.5,831C 62.8992,830.454 66.2325,830.787 69.5,832C 71.539,834.374 73.8723,836.374 76.5,838C 92.4911,845.991 107.824,854.991 122.5,865C 131.507,870.17 141.174,873.003 151.5,873.5C 151.67,872.178 151.337,871.011 150.5,870C 136.171,865.338 123.171,858.338 111.5,849C 117.891,848.242 124.224,848.576 130.5,850C 139.406,853.453 148.073,857.453 156.5,862C 166.348,866.712 176.681,868.379 187.5,867C 191.655,866.282 195.488,864.782 199,862.5C 200.092,857.86 201.092,853.193 202,848.5C 203.691,844.787 206.525,843.621 210.5,845C 216.787,847.898 223.287,850.065 230,851.5C 233.642,851.287 237.142,850.453 240.5,849C 245.167,845.667 249.833,842.333 254.5,839C 258.167,838.333 261.833,838.333 265.5,839C 284.884,846.4 304.217,846.067 323.5,838C 342.672,829.609 362.005,821.609 381.5,814C 382.337,812.989 382.67,811.822 382.5,810.5C 375.737,811.023 369.07,812.19 362.5,814C 346.938,819.781 331.605,826.114 316.5,833C 315.5,833.667 314.5,833.667 313.5,833C 320.324,830.091 326.658,826.424 332.5,822C 343.896,809.935 355.896,798.602 368.5,788C 382.496,781.006 395.83,773.006 408.5,764C 416.004,756.817 416.338,749.317 409.5,741.5C 409.977,740.522 410.643,739.689 411.5,739C 419.814,739.625 428.147,740.459 436.5,741.5C 440.256,741.537 443.922,741.037 447.5,740C 454.763,734.74 461.43,728.74 467.5,722C 481.153,713.088 495.819,711.088 511.5,716C 519.556,720.448 528.056,723.615 537,725.5C 541.037,725.068 544.87,723.902 548.5,722C 556.286,715.551 564.619,709.884 573.5,705C 583.636,702.972 593.636,703.472 603.5,706.5C 603.719,705.325 603.386,704.325 602.5,703.5C 597.687,701.229 592.687,699.562 587.5,698.5 Z"/></g>
<g><path style="opacity:1" fill="#67464a" d="M 538.5,676.5 C 539.629,678.628 539.796,680.961 539,683.5C 538.495,681.482 537.995,679.482 537.5,677.5C 538.167,677.5 538.5,677.167 538.5,676.5 Z"/></g>
<g><path style="opacity:1" fill="#b2878c" d="M 581.5,696.5 C 583.5,697.167 585.5,697.833 587.5,698.5C 585.076,698.808 582.743,698.474 580.5,697.5C 580.624,696.893 580.957,696.56 581.5,696.5 Z"/></g>
<g><path style="opacity:1" fill="#2a1719" d="M 600.5,711.5 C 606.168,712.49 610.501,715.49 613.5,720.5C 613.167,720.833 612.833,721.167 612.5,721.5C 608.757,717.661 604.757,714.327 600.5,711.5 Z"/></g>
<g><path style="opacity:1" fill="#2f191b" d="M 614.5,711.5 C 618.708,714.303 621.041,717.97 621.5,722.5C 619.397,718.894 616.731,715.727 613.5,713C 614.056,712.617 614.389,712.117 614.5,711.5 Z"/></g>
<g><path style="opacity:0.753" fill="#929292" d="M 166.5,714.5 C 168.085,715.002 168.585,716.002 168,717.5C 166.961,716.756 166.461,715.756 166.5,714.5 Z"/></g>
<g><path style="opacity:1" fill="#311d20" d="M 582.5,713.5 C 589.051,713.405 594.718,715.572 599.5,720C 594.78,717.997 589.78,716.497 584.5,715.5C 583.287,715.253 582.62,714.586 582.5,713.5 Z"/></g>
<g><path style="opacity:0.991" fill="#0b0a0a" d="M 487.5,720.5 C 484.833,721.167 482.167,721.833 479.5,722.5C 477.473,722.662 475.473,722.495 473.5,722C 473.833,721.667 474.167,721.333 474.5,721C 478.821,720.501 483.154,720.334 487.5,720.5 Z"/></g>
<g><path style="opacity:1" fill="#2f181b" d="M 573.5,719.5 C 576.482,719.104 579.149,719.771 581.5,721.5C 581.167,721.833 580.833,722.167 580.5,722.5C 577.655,722.234 575.322,721.234 573.5,719.5 Z"/></g>
<g><path style="opacity:1" fill="#572e33" d="M 487.5,720.5 C 489.429,720.231 491.095,720.731 492.5,722C 488.179,722.499 483.846,722.666 479.5,722.5C 482.167,721.833 484.833,721.167 487.5,720.5 Z"/></g>
<g><path style="opacity:0.99" fill="#151112" d="M 472.5,726.5 C 477.511,726.334 482.511,726.501 487.5,727C 480.713,727.993 474.047,729.493 467.5,731.5C 466.692,731.192 466.025,730.692 465.5,730C 467.713,728.384 470.047,727.217 472.5,726.5 Z"/></g>
<g><path style="opacity:0.988" fill="#191919" d="M 464.5,737.5 C 468.375,737.085 472.042,737.585 475.5,739C 469.461,739.152 463.628,740.319 458,742.5C 456.392,742.026 456.226,741.359 457.5,740.5C 459.885,739.339 462.219,738.339 464.5,737.5 Z"/></g>
<g><path style="opacity:1" fill="#201516" d="M 496.5,744.5 C 502.11,746.601 504.61,750.601 504,756.5C 503.167,758.667 501.667,760.167 499.5,761C 496.518,761.498 493.518,761.665 490.5,761.5C 490.5,760.5 490.5,759.5 490.5,758.5C 494.516,759.1 498.016,758.1 501,755.5C 501.667,754.167 501.667,752.833 501,751.5C 499.25,749.266 497.75,746.932 496.5,744.5 Z"/></g>
<g><path style="opacity:0.878" fill="#272727" d="M 453.5,749.5 C 455.924,749.192 458.257,749.526 460.5,750.5C 457.696,751.305 454.862,751.972 452,752.5C 451.5,752.167 451,751.833 450.5,751.5C 451.602,750.824 452.602,750.158 453.5,749.5 Z"/></g>
<g><path style="opacity:1" fill="#1e1313" d="M 550.5,755.5 C 557.259,755.795 562.426,758.795 566,764.5C 566.758,766.769 566.591,768.936 565.5,771C 562.312,772.316 558.978,772.816 555.5,772.5C 555.5,771.5 555.5,770.5 555.5,769.5C 558.482,769.896 561.149,769.229 563.5,767.5C 562.07,764.567 560.07,762.067 557.5,760C 554.686,758.946 552.353,757.446 550.5,755.5 Z"/></g>
<g><path style="opacity:1" fill="#1e1314" d="M 660.5,755.5 C 667.922,756.19 669.922,759.69 666.5,766C 665.365,766.749 664.365,766.583 663.5,765.5C 665.256,763.809 665.756,761.809 665,759.5C 662.882,758.717 661.382,757.384 660.5,755.5 Z"/></g>
<g><path style="opacity:0.996" fill="#181818" d="M 445.5,758.5 C 449.243,758.459 449.41,759.126 446,760.5C 445.536,759.906 445.369,759.239 445.5,758.5 Z"/></g>
<g><path style="opacity:1" fill="#1d1213" d="M 778.5,793.5 C 780.95,793.874 781.95,795.374 781.5,798C 781.744,800.385 780.911,802.218 779,803.5C 774.185,802.181 770.352,799.515 767.5,795.5C 767.833,795.167 768.167,794.833 768.5,794.5C 771.404,797.081 774.737,798.748 778.5,799.5C 777.725,797.388 777.725,795.388 778.5,793.5 Z"/></g>
<g><path style="opacity:1" fill="#1a0f10" d="M 637.5,797.5 C 643.968,799.046 648.301,802.88 650.5,809C 648.359,814.657 644.192,816.824 638,815.5C 635.245,815.475 632.578,815.141 630,814.5C 629.833,814.167 629.667,813.833 629.5,813.5C 635.145,812.982 640.645,811.982 646,810.5C 646.667,808.833 646.667,807.167 646,805.5C 643.766,803.3 641.266,801.467 638.5,800C 637.748,799.329 637.414,798.496 637.5,797.5 Z"/></g>
<g><path style="opacity:1" fill="#1c1112" d="M 749.5,809.5 C 756.259,813.479 758.259,818.979 755.5,826C 752.167,828 748.833,828 745.5,826C 742.469,822.77 739.803,819.27 737.5,815.5C 738.365,814.417 739.365,814.251 740.5,815C 742.87,819.737 746.537,822.404 751.5,823C 752.574,822.261 753.241,821.261 753.5,820C 751.966,817.101 750.299,814.267 748.5,811.5C 748.863,810.817 749.196,810.15 749.5,809.5 Z"/></g>
<g><path style="opacity:1" fill="#1b1112" d="M 692.5,814.5 C 702.53,820.699 710.364,829.032 716,839.5C 718.872,846.585 717.039,852.085 710.5,856C 704.366,856.271 699.032,854.271 694.5,850C 688.812,843.747 684.312,836.914 681,829.5C 686.468,835.969 692.301,842.136 698.5,848C 702.47,850.517 706.636,851.017 711,849.5C 711.762,844 710.428,839 707,834.5C 702.711,828.542 698.044,822.876 693,817.5C 692.517,816.552 692.351,815.552 692.5,814.5 Z"/></g>
<g><path style="opacity:0.988" fill="#141414" d="M 429.5,817.5 C 435.416,819.083 439.416,822.75 441.5,828.5C 441.471,830.029 440.804,831.196 439.5,832C 436.571,832.777 433.737,832.61 431,831.5C 430.383,830.551 430.549,829.718 431.5,829C 433.473,828.505 435.473,828.338 437.5,828.5C 436.344,824.5 433.844,821.5 430,819.5C 429.536,818.906 429.369,818.239 429.5,817.5 Z"/></g>
<g><path style="opacity:1" fill="#170e0e" d="M 782.5,821.5 C 792.301,827.507 797.968,836.34 799.5,848C 799.987,852.7 797.987,855.7 793.5,857C 791.005,857.157 788.672,857.324 786.5,857.5C 790.126,863.24 792.46,869.406 793.5,876C 794.367,880.954 792.367,883.788 787.5,884.5C 782.54,883.902 777.873,882.402 773.5,880C 768.811,874.924 765.478,869.424 763.5,863.5C 764.5,864 765.5,864.5 766.5,865C 770.357,871.195 775.691,875.528 782.5,878C 787.667,879.5 789.5,877.667 788,872.5C 786.274,868.047 784.274,863.714 782,859.5C 780.247,854.643 781.747,851.643 786.5,850.5C 791.102,852.701 793.769,851.368 794.5,846.5C 793.836,842.675 792.669,839.008 791,835.5C 788.311,830.667 785.478,826 782.5,821.5 Z"/></g>
<g><path style="opacity:0.994" fill="#0d0d0d" d="M 490.5,825.5 C 498.008,826.302 503.008,830.635 505.5,838.5C 505.363,840.107 504.696,841.441 503.5,842.5C 496.277,844.809 490.111,843.142 485,837.5C 484.409,836.517 484.743,835.85 486,835.5C 490.241,839.053 495.074,840.219 500.5,839C 500.957,838.586 501.291,838.086 501.5,837.5C 499.2,832.202 495.533,828.202 490.5,825.5 Z"/></g>
<g><path style="opacity:0.998" fill="#170f10" d="M 560.5,843.5 C 567.099,846.931 572.265,851.931 576,858.5C 578.023,866.126 575.19,869.959 567.5,870C 562.999,865.002 557.999,860.502 552.5,856.5C 558.057,856.793 562.724,859.293 566.5,864C 568.134,864.494 569.801,864.66 571.5,864.5C 571.498,860.489 570.332,856.822 568,853.5C 565.259,850.271 562.759,846.938 560.5,843.5 Z"/></g>
<g><path style="opacity:1" fill="#170e0e" d="M 643.5,842.5 C 653.957,854.426 660.457,868.426 663,884.5C 663.667,889.167 663.667,893.833 663,898.5C 659.535,901.128 656.035,901.128 652.5,898.5C 646.538,890.082 641.205,881.249 636.5,872C 635.216,871.316 634.049,871.483 633,872.5C 631.959,880.577 627.792,883.077 620.5,880C 618.951,878.786 617.785,877.286 617,875.5C 615.536,866.266 612.036,857.933 606.5,850.5C 607.002,849.479 607.668,849.312 608.5,850C 615.663,856.182 619.83,864.016 621,873.5C 623.041,874.423 625.208,874.756 627.5,874.5C 627.085,871.632 628.085,869.465 630.5,868C 636.269,866.632 640.769,868.466 644,873.5C 646.956,880.377 650.289,887.044 654,893.5C 655.333,894.833 656.667,894.833 658,893.5C 658.049,885.731 657.049,878.065 655,870.5C 651.983,860.803 648.15,851.47 643.5,842.5 Z"/></g>
<g><path style="opacity:0.996" fill="#161616" d="M 224.5,853.5 C 232.188,856.016 238.688,860.35 244,866.5C 244.667,867.167 244.667,867.833 244,868.5C 238.507,863.516 232.34,859.516 225.5,856.5C 224.614,855.675 224.281,854.675 224.5,853.5 Z"/></g>
<g><path style="opacity:0.967" fill="#1d1d1d" d="M 214.5,857.5 C 220.445,857.375 225.612,859.709 230,864.5C 230.667,865.167 230.667,865.833 230,866.5C 225.215,862.857 220.049,859.857 214.5,857.5 Z"/></g>
<g><path style="opacity:0.971" fill="#161616" d="M 208.5,861.5 C 213.358,862.596 217.691,864.762 221.5,868C 217.282,867.404 213.282,865.904 209.5,863.5C 208.702,863.043 208.369,862.376 208.5,861.5 Z"/></g>
<g><path style="opacity:0.99" fill="#181818" d="M 286.5,862.5 C 291.898,862.853 295.732,865.853 298,871.5C 299.165,875.684 297.665,878.517 293.5,880C 288.619,880.763 284.619,879.263 281.5,875.5C 298.097,877.731 299.764,873.397 286.5,862.5 Z"/></g>
<g><path style="opacity:0.985" fill="#1a1a1a" d="M 519.5,863.5 C 523.094,866.01 524.428,869.344 523.5,873.5C 519.48,876.118 515.48,875.951 511.5,873C 510.269,871.817 510.269,870.651 511.5,869.5C 514.434,871.917 517.6,872.584 521,871.5C 521.458,868.904 520.625,866.737 518.5,865C 519.056,864.617 519.389,864.117 519.5,863.5 Z"/></g>
<g><path style="opacity:0.974" fill="#181818" d="M 200.5,868.5 C 204.263,868.857 207.93,869.69 211.5,871C 208.833,871.667 206.167,871.667 203.5,871C 201.881,870.764 200.881,869.931 200.5,868.5 Z"/></g>
<g><path style="opacity:0.991" fill="#101010" d="M 420.5,872.5 C 429.241,880.966 435.741,890.966 440,902.5C 440.166,912.328 435.333,916.495 425.5,915C 424,913.5 422.5,912 421,910.5C 415.5,900.167 410,889.833 404.5,879.5C 405.517,876.972 406.684,876.972 408,879.5C 414.375,889.751 420.875,899.918 427.5,910C 429.259,910.798 430.926,910.631 432.5,909.5C 434.262,905.998 434.762,902.332 434,898.5C 430.035,889.42 425.535,880.753 420.5,872.5 Z"/></g>
<g><path style="opacity:0.998" fill="#181011" d="M 849.5,879.5 C 852.899,881.388 855.899,883.888 858.5,887C 860.025,888.009 861.692,888.509 863.5,888.5C 863.327,885.821 862.327,883.487 860.5,881.5C 864.259,880.937 866.593,882.77 867.5,887C 866.251,892.391 863.251,893.725 858.5,891C 854.879,887.559 851.879,883.726 849.5,879.5 Z"/></g>
<g><path style="opacity:0.992" fill="#0c0c0c" d="M 349.5,889.5 C 363.105,894.923 373.272,904.59 380,918.5C 382.409,923.719 381.909,928.553 378.5,933C 375.5,935 372.5,935 369.5,933C 364.585,928.756 360.419,923.923 357,918.5C 355.213,916.042 352.879,914.376 350,913.5C 346.846,915.321 344.346,917.821 342.5,921C 339.036,921.817 335.702,921.483 332.5,920C 328.376,914.923 324.876,909.423 322,903.5C 319.705,900.203 317.038,897.203 314,894.5C 313.312,893.668 313.479,893.002 314.5,892.5C 322.929,897.936 329.262,905.269 333.5,914.5C 335.898,915.724 338.231,915.558 340.5,914C 341.738,907.854 345.404,905.854 351.5,908C 359.167,913 365.5,919.333 370.5,927C 372.167,927.667 373.833,927.667 375.5,927C 376.059,926.275 376.392,925.442 376.5,924.5C 371.11,910.056 362.11,898.389 349.5,889.5 Z"/></g>
<g><path style="opacity:0.991" fill="#0f0f0f" d="M 157.5,896.5 C 163.028,896.674 167.861,899.008 172,903.5C 176.266,914.264 172.432,919.097 160.5,918C 152.747,915.232 145.747,911.232 139.5,906C 140,905.5 140.5,905 141,904.5C 148.632,910.072 157.132,912.906 166.5,913C 168.908,909.957 169.074,906.791 167,903.5C 164.248,900.547 161.082,898.214 157.5,896.5 Z"/></g>
<g><path style="opacity:0.998" fill="#1c1213" d="M 780.5,899.5 C 783.688,902.159 786.188,905.492 788,909.5C 796.685,917.214 799.185,915.548 795.5,904.5C 795.733,903.068 796.4,902.568 797.5,903C 801.287,907.007 802.12,911.507 800,916.5C 796.793,919.007 793.626,918.841 790.5,916C 785.762,911.359 782.429,905.859 780.5,899.5 Z"/></g>
<g><path style="opacity:0.992" fill="#0f0f0f" d="M 256.5,907.5 C 262.806,907.238 267.972,909.905 272,915.5C 275.111,919.722 276.111,924.389 275,929.5C 270.198,934.48 265.031,934.646 259.5,930C 254.61,927.046 250.277,923.379 246.5,919C 247.5,918.333 248.5,918.333 249.5,919C 255.089,921.599 260.423,924.599 265.5,928C 270.667,929.5 272.5,927.667 271,922.5C 268.369,915.369 263.535,910.369 256.5,907.5 Z"/></g>
<g><path style="opacity:0.998" fill="#fbfbfb" d="M 896.5,907.5 C 912.866,919.03 928.532,931.53 943.5,945C 958.106,957.143 974.439,966.476 992.5,973C 1004.29,976.817 1015.95,980.817 1027.5,985C 1020.82,990.316 1015.16,996.483 1010.5,1003.5C 1006.34,1001.59 1002.34,999.421 998.5,997C 992.46,991.291 986.126,985.957 979.5,981C 969.713,975.964 965.213,978.797 966,989.5C 968.769,997.794 971.102,1006.13 973,1014.5C 962.602,1002.04 952.936,989.035 944,975.5C 935.102,965.932 925.602,957.099 915.5,949C 920.584,948.574 925.584,947.74 930.5,946.5C 930.66,944.801 930.494,943.134 930,941.5C 915.933,932.934 904.766,921.6 896.5,907.5 Z"/></g>
<g><path style="opacity:0.997" fill="#f9f9f9" d="M 722.5,921.5 C 722.897,920.475 723.563,920.308 724.5,921C 742.095,930.935 759.428,941.269 776.5,952C 784.081,956.412 792.081,959.412 800.5,961C 785.788,951.643 771.788,941.309 758.5,930C 767.981,933.495 777.648,936.828 787.5,940C 797.857,945.174 807.857,950.841 817.5,957C 821.18,958.027 824.347,957.194 827,954.5C 831.096,948.382 833.929,941.715 835.5,934.5C 838.5,936.333 841.5,938.167 844.5,940C 846.447,940.991 848.447,941.325 850.5,941C 845.705,936.04 840.705,931.207 835.5,926.5C 836,926.167 836.5,925.833 837,925.5C 843.564,928.866 850.064,932.366 856.5,936C 858.794,940.088 860.961,944.255 863,948.5C 863.745,949.99 864.912,950.99 866.5,951.5C 870.944,948.899 875.278,946.066 879.5,943C 883.167,942.333 886.833,942.333 890.5,943C 901.602,948.759 911.602,956.093 920.5,965C 915.034,962.934 909.7,960.267 904.5,957C 899.657,954.664 894.657,952.831 889.5,951.5C 889.281,952.675 889.614,953.675 890.5,954.5C 900.061,959.783 908.728,966.283 916.5,974C 907.76,969.805 898.76,965.805 889.5,962C 886.57,960.682 883.57,960.015 880.5,960C 897.596,967.929 912.596,978.762 925.5,992.5C 926.521,993.002 926.688,993.668 926,994.5C 907.24,984.08 888.24,974.08 869,964.5C 867.743,964.85 867.409,965.517 868,966.5C 887.218,981.385 906.718,995.885 926.5,1010C 927.696,1010.65 927.696,1011.15 926.5,1011.5C 896.998,998.165 867.831,984.165 839,969.5C 837.278,969.611 837.112,970.111 838.5,971C 856.775,982.943 874.775,995.276 892.5,1008C 893.696,1008.65 893.696,1009.15 892.5,1009.5C 864.211,998.354 837.044,985.021 811,969.5C 810.833,969.833 810.667,970.167 810.5,970.5C 829.466,985.317 849.133,999.151 869.5,1012C 870.696,1012.65 870.696,1013.15 869.5,1013.5C 839.608,1003.38 810.942,990.877 783.5,976C 807.291,995.406 832.958,1012.07 860.5,1026C 841.416,1019.63 823.083,1011.3 805.5,1001C 787.231,989.727 769.231,978.061 751.5,966C 742.486,958.659 734.652,950.492 728,941.5C 739.643,947.853 751.476,952.853 763.5,956.5C 748.293,946.625 734.626,934.959 722.5,921.5 Z"/></g>
<g><path style="opacity:0.998" fill="#fafafa" d="M 611.5,928.5 C 626.868,936.372 641.868,944.872 656.5,954C 670.179,969.867 683.012,986.367 695,1003.5C 702.833,1012.67 711.333,1021.17 720.5,1029C 730.02,1035.4 740.354,1040.07 751.5,1043C 773.484,1061 798.151,1074.33 825.5,1083C 807.187,1081.01 789.52,1076.34 772.5,1069C 757.675,1061.42 743.342,1053.09 729.5,1044C 713.208,1035.63 697.208,1029.29 681.5,1025C 702.501,1037.16 723.167,1049.83 743.5,1063C 743,1063.17 742.5,1063.33 742,1063.5C 706.587,1049.36 671.253,1035.03 636,1020.5C 634.278,1020.61 634.112,1021.11 635.5,1022C 666.516,1039.18 697.85,1055.84 729.5,1072C 689.077,1061.91 650.077,1047.75 612.5,1029.5C 612.167,1029.83 611.833,1030.17 611.5,1030.5C 642.55,1050.65 675.217,1068.15 709.5,1083C 682.023,1077.12 655.023,1069.29 628.5,1059.5C 627.304,1059.85 627.304,1060.35 628.5,1061C 655.69,1074.62 682.023,1087.12 707.5,1098.5C 690.029,1095.24 672.695,1091.41 655.5,1087C 632.455,1074.98 608.788,1064.32 584.5,1055C 564.849,1045.18 545.516,1034.84 526.5,1024C 516.779,1015.61 507.779,1006.61 499.5,997C 499.833,996.833 500.167,996.667 500.5,996.5C 528.308,1014.24 557.642,1029.07 588.5,1041C 597.073,1044.3 605.74,1046.97 614.5,1049C 578.731,1026.56 544.065,1002.56 510.5,977C 530.32,987.918 550.32,998.918 570.5,1010C 578.5,1013.58 586.667,1016.75 595,1019.5C 595.5,1019.17 596,1018.83 596.5,1018.5C 588.869,1014.01 581.202,1009.51 573.5,1005C 556.006,992.753 538.34,980.753 520.5,969C 515.199,964.7 510.199,960.034 505.5,955C 530.447,966.636 555.447,978.636 580.5,991C 588.833,995.833 597.167,1000.67 605.5,1005.5C 606.711,1004.73 606.711,1003.89 605.5,1003C 597.833,996.667 590.167,990.333 582.5,984C 562.343,969.088 542.01,954.422 521.5,940C 529.172,942.995 536.838,946.328 544.5,950C 571.01,964.088 597.676,977.922 624.5,991.5C 624.833,991.333 625.167,991.167 625.5,991C 607.735,975.618 588.735,961.951 568.5,950C 580.077,952.636 591.41,956.302 602.5,961C 620.192,970.05 637.359,979.883 654,990.5C 654.5,990.333 655,990.167 655.5,990C 639.349,976.759 623.016,963.759 606.5,951C 628.01,956.755 647.343,966.755 664.5,981C 665.167,981.667 665.833,981.667 666.5,981C 654.079,967.244 640.413,954.911 625.5,944C 620.234,939.241 615.567,934.075 611.5,928.5 Z"/></g>
<g><path style="opacity:0.994" fill="#0d0d0d" d="M 228.5,939.5 C 233.933,941.37 235.933,945.037 234.5,950.5C 230.892,951.593 227.225,951.76 223.5,951C 222.663,949.989 222.33,948.822 222.5,947.5C 225.738,948.395 228.905,948.395 232,947.5C 231.589,944.562 230.422,941.895 228.5,939.5 Z"/></g>
<g><path style="opacity:0.995" fill="#f6f6f6" d="M 697.5,947.5 C 712.944,953.527 728.277,960.694 743.5,969C 767.123,987.481 791.789,1004.48 817.5,1020C 788.992,1009.25 762.659,994.579 738.5,976C 729.001,969.749 719.334,963.749 709.5,958C 705.924,953.918 701.924,950.418 697.5,947.5 Z"/></g>
<g><path style="opacity:0.992" fill="#f1f1f1" d="M 689.5,954.5 C 689.56,953.957 689.893,953.624 690.5,953.5C 698.188,957.358 705.188,962.191 711.5,968C 720.167,973.667 728.833,979.333 737.5,985C 746.591,993.428 756.258,1001.09 766.5,1008C 738.206,994.167 712.54,976.333 689.5,954.5 Z"/></g>
<g><path style="opacity:0.991" fill="#151515" d="M 202.5,975.5 C 209.422,978.095 213.422,983.095 214.5,990.5C 213.781,992.728 212.448,994.561 210.5,996C 201.874,996.94 194.707,994.106 189,987.5C 188.251,986.365 188.417,985.365 189.5,984.5C 194.515,989.511 200.515,992.011 207.5,992C 209.444,989.847 209.944,987.347 209,984.5C 207.167,981.333 204.667,978.833 201.5,977C 202.056,976.617 202.389,976.117 202.5,975.5 Z"/></g>
<g><path style="opacity:0.998" fill="#fafafa" d="M 400.5,982.5 C 404.544,981.958 408.211,982.791 411.5,985C 437.767,1007.93 463.434,1031.6 488.5,1056C 503.852,1070.01 520.852,1081.68 539.5,1091C 557.167,1098 574.833,1105 592.5,1112C 604.924,1118.55 617.591,1124.55 630.5,1130C 615.486,1127.58 600.819,1123.58 586.5,1118C 547.716,1101.78 508.383,1086.94 468.5,1073.5C 467.304,1073.85 467.304,1074.35 468.5,1075C 483.912,1084.07 499.579,1092.73 515.5,1101C 495.439,1095.04 475.439,1088.54 455.5,1081.5C 454.304,1081.85 454.304,1082.35 455.5,1083C 481.729,1099.53 508.729,1114.87 536.5,1129C 529.671,1127.84 523.005,1125.84 516.5,1123C 485.631,1108.15 454.464,1093.98 423,1080.5C 422.5,1080.67 422,1080.83 421.5,1081C 437.322,1094.49 453.988,1106.82 471.5,1118C 466.072,1116.97 460.739,1115.3 455.5,1113C 433.811,1102.32 412.144,1091.99 390.5,1082C 398.119,1087.28 405.452,1092.95 412.5,1099C 368.424,1082.3 329.091,1057.96 294.5,1026C 318.894,1033.77 342.394,1043.94 365,1056.5C 366.487,1055.75 366.654,1054.91 365.5,1054C 352.549,1044.72 339.882,1035.05 327.5,1025C 344.96,1030.89 361.626,1038.73 377.5,1048.5C 378.521,1048 378.688,1047.33 378,1046.5C 366.074,1035.9 353.574,1026.07 340.5,1017C 339.304,1016.35 339.304,1015.85 340.5,1015.5C 351.27,1019.03 361.937,1022.87 372.5,1027C 383.343,1032.42 394.01,1037.75 404.5,1043C 390.393,1031.56 375.727,1020.89 360.5,1011C 359.304,1010.35 359.304,1009.85 360.5,1009.5C 384.587,1020.55 408.254,1032.05 431.5,1044C 412.986,1026.81 393.32,1011.15 372.5,997C 378.929,998.363 385.262,1000.36 391.5,1003C 403.822,1009.16 415.822,1015.83 427.5,1023C 430.351,1024.61 433.351,1025.27 436.5,1025C 420.125,1015.13 407.792,1001.63 399.5,984.5C 399.863,983.817 400.196,983.15 400.5,982.5 Z"/></g>
<g><path style="opacity:0.996" fill="#f6f6f6" d="M 472.5,1006.5 C 483.473,1011.99 494.473,1017.49 505.5,1023C 532.352,1041.94 560.686,1058.6 590.5,1073C 606.334,1079.61 622,1086.61 637.5,1094C 626.755,1091.98 616.088,1089.31 605.5,1086C 580.473,1072.32 554.807,1059.99 528.5,1049C 514.835,1039.83 500.835,1031.17 486.5,1023C 480.849,1018.19 476.182,1012.69 472.5,1006.5 Z"/></g>
<g><path style="opacity:0.995" fill="#f6f6f6" d="M 291.5,1044.5 C 291.56,1043.96 291.893,1043.62 292.5,1043.5C 304.292,1049.47 315.958,1055.63 327.5,1062C 347.815,1077.16 368.482,1091.82 389.5,1106C 386.756,1105.98 384.089,1105.31 381.5,1104C 362.02,1094.43 343.02,1084.1 324.5,1073C 313.842,1063.02 302.842,1053.52 291.5,1044.5 Z"/></g>
<g><path style="opacity:0.994" fill="#f2f2f2" d="M 495.5,1044.5 C 507.953,1047.18 519.62,1052.35 530.5,1060C 554.921,1071.25 578.921,1083.25 602.5,1096C 590.356,1093.51 578.356,1090.18 566.5,1086C 542.149,1073.16 518.482,1059.33 495.5,1044.5 Z"/></g>
<g><path style="opacity:0.995" fill="#f6f6f6" d="M 266.5,1050.5 C 276.521,1056.51 286.854,1062.01 297.5,1067C 315.338,1078.42 333.005,1090.08 350.5,1102C 356.5,1105.33 362.5,1108.67 368.5,1112C 344.531,1104.52 321.531,1094.52 299.5,1082C 288.742,1073.91 278.576,1065.08 269,1055.5C 267.906,1053.92 267.072,1052.26 266.5,1050.5 Z"/></g>
</svg>
