<?xml version="1.0" encoding="UTF-8"?>
<!DOCTYPE svg PUBLIC "-//W3C//DTD SVG 1.1//EN" "http://www.w3.org/Graphics/SVG/1.1/DTD/svg11.dtd">
<svg xmlns="http://www.w3.org/2000/svg" version="1.1" width="1009px" height="1182px" style="shape-rendering:geometricPrecision; text-rendering:geometricPrecision; image-rendering:optimizeQuality; fill-rule:evenodd; clip-rule:evenodd" xmlns:xlink="http://www.w3.org/1999/xlink">
<g><path style="opacity:0.998" fill="#a71a2c" d="M 701.5,-0.5 C 709.167,-0.5 716.833,-0.5 724.5,-0.5C 829.02,6.6534 909.52,53.9867 966,141.5C 990.968,183.9 1005.14,229.567 1008.5,278.5C 1008.5,289.167 1008.5,299.833 1008.5,310.5C 1003.9,380.357 978.397,441.357 932,493.5C 924.265,501.738 916.099,509.405 907.5,516.5C 897.35,488.856 885.516,461.856 872,435.5C 860.621,414.953 845.788,397.286 827.5,382.5C 866.479,370.755 905.812,360.255 945.5,351C 949.104,349.666 950.271,347.166 949,343.5C 937.012,323.509 921.512,306.676 902.5,293C 894.258,287.759 885.258,286.092 875.5,288C 830.699,295.186 786.366,304.186 742.5,315C 711.947,294.061 678.614,279.061 642.5,270C 621.477,266.107 600.477,262.107 579.5,258C 550.372,231.93 516.705,213.93 478.5,204C 464.258,200.23 449.925,197.064 435.5,194.5C 467.883,109.95 526.216,51.117 610.5,18C 640.075,7.38539 670.409,1.21872 701.5,-0.5 Z"/></g>
<g><path style="opacity:0.994" fill="#010101" d="M 435.5,194.5 C 449.925,197.064 464.258,200.23 478.5,204C 516.705,213.93 550.372,231.93 579.5,258C 600.477,262.107 621.477,266.107 642.5,270C 678.614,279.061 711.947,294.061 742.5,315C 786.366,304.186 830.699,295.186 875.5,288C 885.258,286.092 894.258,287.759 902.5,293C 921.512,306.676 937.012,323.509 949,343.5C 950.271,347.166 949.104,349.666 945.5,351C 905.812,360.255 866.479,370.755 827.5,382.5C 845.788,397.286 860.621,414.953 872,435.5C 885.516,461.856 897.35,488.856 907.5,516.5C 917.182,539.716 924.349,563.716 929,588.5C 930.975,601.504 930.975,614.504 929,627.5C 925.699,643.469 916.532,654.636 901.5,661C 915.271,717.998 922.437,775.831 923,834.5C 922.494,850.872 917.828,865.872 909,879.5C 898.25,890.8 885.417,898.967 870.5,904C 857.56,908.486 844.56,912.819 831.5,917C 816.019,927.131 800.019,936.465 783.5,945C 764.423,952.048 744.756,954.381 724.5,952C 717.53,951.386 710.697,950.22 704,948.5C 681.523,1016.28 642.023,1071.78 585.5,1115C 562.708,1131.12 539.375,1146.45 515.5,1161C 498.76,1171.52 480.76,1178.35 461.5,1181.5C 451.5,1181.5 441.5,1181.5 431.5,1181.5C 403.729,1177.18 378.729,1166.35 356.5,1149C 317.029,1117.16 284.196,1079.66 258,1036.5C 249.454,1022.58 241.288,1008.41 233.5,994C 179.449,998.459 127.783,989.125 78.5,966C 65.3113,958.647 53.478,949.481 43,938.5C 32.4581,923.918 31.4581,908.918 40,893.5C 42,891.5 44,889.5 46,887.5C 43.8483,801.014 51.3483,715.347 68.5,630.5C 68.3333,629.833 68.1667,629.167 68,628.5C 62.121,631.189 56.2876,634.023 50.5,637C 47.0357,637.817 43.7024,637.483 40.5,636C 36.9636,632.799 33.7969,629.299 31,625.5C 24.0647,614.632 16.398,604.298 8,594.5C 4.60495,589.698 1.77161,584.698 -0.5,579.5C -0.5,577.833 -0.5,576.167 -0.5,574.5C 0.93142,572.563 2.59809,570.73 4.5,569C 41.5635,544.273 78.8968,519.94 116.5,496C 90.9465,463.611 82.4465,427.111 91,386.5C 94.9561,369.928 101.623,354.594 111,340.5C 118.993,316.833 131.326,295.833 148,277.5C 178.164,245.513 212.998,220.013 252.5,201C 282.215,190.35 312.882,185.516 344.5,186.5C 375.066,186.723 405.399,189.39 435.5,194.5 Z M 102.5,370.5 C 103.139,371.097 103.472,371.93 103.5,373C 99.6901,395.756 98.8568,418.589 101,441.5C 94.6976,417.686 95.1976,394.02 102.5,370.5 Z M 55.5,936.5 C 43.6735,925.521 40.8402,912.521 47,897.5C 49.1828,910.578 52.0162,923.578 55.5,936.5 Z M 792.5,928.5 C 774.031,939.231 754.031,944.064 732.5,943C 752.52,938.161 772.52,933.328 792.5,928.5 Z"/></g>
<g><path style="opacity:0.986" fill="#f2f2f2" d="M 216.5,236.5 C 218.404,243.673 220.071,251.173 221.5,259C 221.387,260.28 220.72,261.113 219.5,261.5C 217.869,259.941 217.036,257.941 217,255.5C 216.5,249.175 216.334,242.842 216.5,236.5 Z"/></g>
<g><path style="opacity:0.994" fill="#f1f1f1" d="M 205.5,240.5 C 207.464,258.289 210.13,276.123 213.5,294C 213.546,295.728 213.046,297.228 212,298.5C 209.894,296.623 208.561,294.29 208,291.5C 203.122,274.672 202.289,257.672 205.5,240.5 Z"/></g>
<g><path style="opacity:0.995" fill="#f2f2f2" d="M 189.5,255.5 C 194.04,281.33 200.373,306.997 208.5,332.5C 208.167,333.167 207.833,333.833 207.5,334.5C 197.189,318.734 191.356,301.401 190,282.5C 189.5,273.506 189.334,264.506 189.5,255.5 Z"/></g>
<g><path style="opacity:1" fill="#f6f0f1" d="M 560.5,267.5 C 587.918,286.604 604.918,312.604 611.5,345.5C 610.022,345.762 608.689,345.429 607.5,344.5C 597.29,316.393 581.79,291.726 561,270.5C 560.517,269.552 560.351,268.552 560.5,267.5 Z"/></g>
<g><path style="opacity:1" fill="#f9f7f8" d="M 647.5,311.5 C 646.833,306.5 646.167,301.5 645.5,296.5C 645.5,292.5 645.5,288.5 645.5,284.5C 644.5,284.5 643.5,284.5 642.5,284.5C 640.584,294.75 637.751,304.75 634,314.5C 633.8,303.966 632.3,293.633 629.5,283.5C 628.726,282.289 627.893,282.289 627,283.5C 626.404,292.811 624.404,301.811 621,310.5C 619.583,299.833 617.083,289.5 613.5,279.5C 612.893,279.624 612.56,279.957 612.5,280.5C 611.833,286.5 611.167,292.5 610.5,298.5C 609.356,291.401 607.023,284.734 603.5,278.5C 602.534,280.396 602.201,282.396 602.5,284.5C 602.5,285.167 602.167,285.5 601.5,285.5C 597.762,279.588 593.429,274.088 588.5,269C 610.477,273.396 632.477,278.063 654.5,283C 681.022,292.762 706.355,304.928 730.5,319.5C 725.204,321.209 720.038,323.209 715,325.5C 715.419,323.497 716.253,321.497 717.5,319.5C 717.167,319.167 716.833,318.833 716.5,318.5C 711.672,322.081 706.672,325.415 701.5,328.5C 701.167,328.333 700.833,328.167 700.5,328C 703.042,323.315 704.376,318.481 704.5,313.5C 700.132,319.034 694.965,323.701 689,327.5C 690.333,320.833 691.667,314.167 693,307.5C 688.394,315.039 683.061,322.039 677,328.5C 677.996,323.184 679.329,317.851 681,312.5C 681.667,309.167 681.667,305.833 681,302.5C 676.914,309.007 672.58,315.34 668,321.5C 668.456,314.348 669.289,307.182 670.5,300C 670.167,298.5 669.833,297 669.5,295.5C 669.167,295.667 668.833,295.833 668.5,296C 665.065,303.703 661.232,311.203 657,318.5C 657.628,309.681 658.461,300.848 659.5,292C 659.167,291.5 658.833,291 658.5,290.5C 653.535,296.762 649.868,303.762 647.5,311.5 Z"/></g>
<g><path style="opacity:0.997" fill="#f3f3f3" d="M 286.5,274.5 C 287.117,274.611 287.617,274.944 288,275.5C 289.009,297.257 291.009,318.924 294,340.5C 298.728,370.535 303.561,400.535 308.5,430.5C 307.325,430.719 306.325,430.386 305.5,429.5C 290.576,391.79 283.576,352.624 284.5,312C 284.525,299.454 285.192,286.954 286.5,274.5 Z"/></g>
<g><path style="opacity:1" fill="#8e6d72" d="M 602.5,284.5 C 603.573,285.251 603.74,286.251 603,287.5C 602.283,286.956 601.783,286.289 601.5,285.5C 602.167,285.5 602.5,285.167 602.5,284.5 Z"/></g>
<g><path style="opacity:1" fill="#4d2c30" d="M 612.5,280.5 C 612.666,287.841 612.5,295.174 612,302.5C 611.209,301.255 610.709,299.922 610.5,298.5C 611.167,292.5 611.833,286.5 612.5,280.5 Z"/></g>
<g><path style="opacity:1" fill="#fbfafa" d="M 781.5,365.5 C 781.5,365.167 781.5,364.833 781.5,364.5C 804.3,357.126 826.633,348.793 848.5,339.5C 847.667,339.167 846.833,338.833 846,338.5C 825.984,341.67 806.151,345.67 786.5,350.5C 786.5,350.167 786.5,349.833 786.5,349.5C 813.635,341.012 840.302,331.345 866.5,320.5C 865.667,320.167 864.833,319.833 864,319.5C 827.957,326.969 792.123,335.303 756.5,344.5C 756.5,344.167 756.5,343.833 756.5,343.5C 779.636,335.177 802.969,327.344 826.5,320C 844.593,314.763 862.926,310.596 881.5,307.5C 864.971,305.762 848.638,306.929 832.5,311C 793.717,322.113 754.717,332.446 715.5,342C 703.599,345.134 691.932,348.967 680.5,353.5C 678.111,352.82 675.778,351.986 673.5,351C 739.25,325.228 807.25,307.561 877.5,298C 886.602,295.878 894.602,297.878 901.5,304C 914.951,315.114 926.618,327.78 936.5,342C 893.676,352.706 851.009,364.039 808.5,376C 788.554,381.815 768.887,388.315 749.5,395.5C 747.321,394.243 745.321,392.743 743.5,391C 774.844,380.109 805.844,368.443 836.5,356C 818.014,358.063 799.68,361.23 781.5,365.5 Z"/></g>
<g><path style="opacity:1" fill="#f5eff0" d="M 574.5,307.5 C 575.552,307.351 576.552,307.517 577.5,308C 587.656,320.312 594.322,334.312 597.5,350C 597.556,352.538 596.556,354.372 594.5,355.5C 593.522,355.023 592.689,354.357 592,353.5C 589.002,336.994 583.168,321.66 574.5,307.5 Z"/></g>
<g><path style="opacity:1" fill="#8e6e72" d="M 645.5,296.5 C 646.167,301.5 646.833,306.5 647.5,311.5C 647.217,312.289 646.717,312.956 646,313.5C 645.501,307.843 645.334,302.176 645.5,296.5 Z"/></g>
<g><path style="opacity:0.995" fill="#f0f0f0" d="M 310.5,316.5 C 312.49,354.922 319.824,392.422 332.5,429C 332.719,430.971 331.885,432.138 330,432.5C 326.557,427.867 324.057,422.7 322.5,417C 311.294,384.306 307.294,350.806 310.5,316.5 Z"/></g>
<g><path style="opacity:1" fill="#816266" d="M 756.5,343.5 C 756.5,343.833 756.5,344.167 756.5,344.5C 753.496,346.442 750.162,347.275 746.5,347C 749.899,345.923 753.233,344.756 756.5,343.5 Z"/></g>
<g><path style="opacity:1" fill="#907276" d="M 786.5,349.5 C 786.5,349.833 786.5,350.167 786.5,350.5C 783.447,352.263 780.114,353.097 776.5,353C 779.857,351.83 783.191,350.663 786.5,349.5 Z"/></g>
<g><path style="opacity:1" fill="#eee6e7" d="M 514.5,352.5 C 515.139,353.097 515.472,353.93 515.5,355C 513.217,374.788 511.384,394.622 510,414.5C 508.667,415.833 507.333,415.833 506,414.5C 504.03,393.123 506.864,372.456 514.5,352.5 Z"/></g>
<g><path style="opacity:0.996" fill="#f3f3f3" d="M 332.5,358.5 C 338.126,377.989 343.626,397.655 349,417.5C 350.108,421.086 350.608,424.753 350.5,428.5C 349.178,428.67 348.011,428.337 347,427.5C 336.467,405.724 331.633,382.724 332.5,358.5 Z"/></g>
<g><path style="opacity:1" fill="#f7f2f3" d="M 663.5,362.5 C 693.75,368.538 719.583,382.538 741,404.5C 746.414,410.747 751.247,417.414 755.5,424.5C 755.167,424.833 754.833,425.167 754.5,425.5C 732.92,406.712 709.92,389.878 685.5,375C 678.5,371.5 671.5,368 664.5,364.5C 663.702,364.043 663.369,363.376 663.5,362.5 Z"/></g>
<g><path style="opacity:1" fill="#806063" d="M 781.5,364.5 C 781.5,364.833 781.5,365.167 781.5,365.5C 779.775,366.905 777.775,367.405 775.5,367C 777.488,366.062 779.488,365.228 781.5,364.5 Z"/></g>
<g><path style="opacity:1" fill="#ece4e5" d="M 494.5,367.5 C 495.748,368.334 496.415,369.667 496.5,371.5C 495.739,385.152 495.239,398.819 495,412.5C 492.301,415.264 490.634,414.597 490,410.5C 488.325,395.779 489.825,381.446 494.5,367.5 Z"/></g>
<g><path style="opacity:1" fill="#f7f3f3" d="M 580.5,455.5 C 579.532,453.393 579.198,451.059 579.5,448.5C 583.454,416.911 598.787,392.578 625.5,375.5C 626.881,376 627.547,377 627.5,378.5C 616.748,390.087 606.915,402.42 598,415.5C 590.711,428.202 584.877,441.536 580.5,455.5 Z"/></g>
<g><path style="opacity:1" fill="#f8f7f7" d="M 873.5,522.5 C 868.305,522.821 863.305,522.487 858.5,521.5C 868.611,519.797 877.944,516.13 886.5,510.5C 882.893,509.511 879.226,509.177 875.5,509.5C 869.31,509.823 863.31,509.49 857.5,508.5C 862.257,506.957 866.924,505.124 871.5,503C 874.87,501.654 877.87,499.821 880.5,497.5C 879.167,497.167 877.833,496.833 876.5,496.5C 865.549,498.262 854.549,499.096 843.5,499C 855.26,494.957 865.927,489.124 875.5,481.5C 874.5,481.167 873.5,480.833 872.5,480.5C 861.272,483.081 849.938,484.581 838.5,485C 850.043,481.565 860.377,476.065 869.5,468.5C 868.833,468.167 868.167,467.833 867.5,467.5C 856.03,470.734 844.364,472.234 832.5,472C 843.317,469.258 852.984,464.425 861.5,457.5C 860.5,457.167 859.5,456.833 858.5,456.5C 847.273,458.923 835.94,460.089 824.5,460C 833.731,456.718 842.731,452.884 851.5,448.5C 852.386,447.675 852.719,446.675 852.5,445.5C 843.003,448.027 833.337,449.36 823.5,449.5C 822.209,449.737 821.209,449.404 820.5,448.5C 830.477,445.168 839.144,439.835 846.5,432.5C 845.667,432.167 844.833,431.833 844,431.5C 831.219,434.906 818.386,437.739 805.5,440C 816.289,435.106 826.956,429.939 837.5,424.5C 838.711,423.726 838.711,422.893 837.5,422C 825.178,424.331 812.845,426.664 800.5,429C 811.271,424.784 821.271,419.284 830.5,412.5C 829.667,412.167 828.833,411.833 828,411.5C 817.222,414.571 806.388,417.071 795.5,419C 805.188,414.829 814.188,409.662 822.5,403.5C 822,403.167 821.5,402.833 821,402.5C 809.341,406.374 797.507,409.207 785.5,411C 795.271,405.052 804.604,398.552 813.5,391.5C 812.277,390.386 810.944,390.219 809.5,391C 795.966,395.839 782.633,400.839 769.5,406C 775.5,402 781.5,398 787.5,394C 797.078,390.863 806.745,388.03 816.5,385.5C 829.158,394.659 839.992,405.659 849,418.5C 860.793,435.744 870.793,454.078 879,473.5C 887.667,494.833 896.333,516.167 905,537.5C 913.96,559.338 919.46,582.005 921.5,605.5C 921.723,618.656 918.223,630.656 911,641.5C 907.62,645.103 903.787,648.103 899.5,650.5C 898.347,647.554 897.347,644.554 896.5,641.5C 898.624,640.851 900.624,640.017 902.5,639C 900.695,636.597 898.362,634.93 895.5,634C 916.187,631.02 916.521,627.354 896.5,623C 902.317,621.06 907.983,618.727 913.5,616C 905.119,614.59 896.786,612.924 888.5,611C 894.143,609.503 899.81,607.836 905.5,606C 909.675,604.416 913.341,602.082 916.5,599C 907.663,597.484 898.663,596.484 889.5,596C 897.822,593.735 905.489,590.235 912.5,585.5C 903.843,584.584 895.176,583.751 886.5,583C 895.355,580.887 903.689,577.72 911.5,573.5C 911.291,572.914 910.957,572.414 910.5,572C 903.167,571.667 895.833,571.333 888.5,571C 895.324,568.76 901.324,565.26 906.5,560.5C 905.833,560.167 905.167,559.833 904.5,559.5C 891.535,561.945 878.535,562.112 865.5,560C 878.478,558.339 890.811,554.673 902.5,549C 893.662,547.694 884.662,547.028 875.5,547C 883.933,545.116 891.6,541.616 898.5,536.5C 887.515,535.668 876.515,535.168 865.5,535C 876.011,532.079 885.345,527.079 893.5,520C 886.891,520.872 880.224,521.705 873.5,522.5 Z"/></g>
<g><path style="opacity:0.992" fill="#f0f0f0" d="M 359.5,390.5 C 363.028,400.717 367.361,410.717 372.5,420.5C 371.307,422.384 369.641,422.884 367.5,422C 361.352,412.439 358.685,401.939 359.5,390.5 Z"/></g>
<g><path style="opacity:0.991" fill="#ebebeb" d="M 384.5,401.5 C 385.496,401.414 386.329,401.748 387,402.5C 388.697,406.59 390.197,410.757 391.5,415C 389.268,418.328 387.768,417.828 387,413.5C 386.163,409.486 385.329,405.486 384.5,401.5 Z"/></g>
<g><path style="opacity:1" fill="#f6f0f1" d="M 624.5,408.5 C 627.076,408.722 627.91,410.055 627,412.5C 618.393,420.415 610.726,429.082 604,438.5C 598.063,449.375 592.396,460.375 587,471.5C 586.013,460.45 588.347,450.117 594,440.5C 601.309,427.027 611.475,416.36 624.5,408.5 Z"/></g>
<g><path style="opacity:0.996" fill="#f7f7f7" d="M 115.5,409.5 C 120.927,455.02 139.76,494.02 172,526.5C 172.483,527.448 172.649,528.448 172.5,529.5C 169.072,529.453 166.072,528.287 163.5,526C 131.013,500.186 114.679,466.353 114.5,424.5C 114.584,419.465 114.918,414.465 115.5,409.5 Z"/></g>
<g><path style="opacity:1" fill="#f5eff0" d="M 627.5,431.5 C 630.001,431.826 631.168,433.159 631,435.5C 623.951,442.614 617.617,450.281 612,458.5C 606.401,467.376 600.568,476.043 594.5,484.5C 593.524,481.503 593.69,478.503 595,475.5C 601.234,457.337 612.067,442.67 627.5,431.5 Z"/></g>
<g><path style="opacity:1" fill="#fefefe" d="M 439.5,437.5 C 462.899,436.882 486.232,437.715 509.5,440C 526.666,444.334 543.666,449.167 560.5,454.5C 561.662,474.476 565.829,493.809 573,512.5C 573.893,513.711 574.726,513.711 575.5,512.5C 571.715,500.078 569.548,487.411 569,474.5C 587.597,537.021 615.264,595.021 652,648.5C 655.441,678.937 664.441,707.604 679,734.5C 691.414,752.657 701.747,771.99 710,792.5C 714.648,856.024 705.315,917.357 682,976.5C 664.411,1018.85 638.578,1055.35 604.5,1086C 574.574,1110.3 543.241,1132.63 510.5,1153C 468.499,1178.18 426.165,1178.85 383.5,1155C 357.005,1138.52 333.505,1118.35 313,1094.5C 236.182,1001.15 189.516,894.147 173,773.5C 165.28,718.238 164.613,662.905 171,607.5C 176.365,600.107 180.698,592.107 184,583.5C 190.802,562.759 197.802,542.092 205,521.5C 209.381,509.821 216.047,499.821 225,491.5C 216.372,503.229 209.705,516.229 205,530.5C 204.202,532.259 204.369,533.926 205.5,535.5C 217.795,507.705 237.462,486.872 264.5,473C 321.907,455.892 380.241,444.058 439.5,437.5 Z"/></g>
<g><path style="opacity:0.993" fill="#f3f3f3" d="M 130.5,434.5 C 142.426,461.603 158.592,485.937 179,507.5C 179.563,508.725 179.23,509.725 178,510.5C 151.812,491.822 135.979,466.488 130.5,434.5 Z"/></g>
<g><path style="opacity:1" fill="#aa8f92" d="M 820.5,448.5 C 821.209,449.404 822.209,449.737 823.5,449.5C 821.372,450.629 819.039,450.796 816.5,450C 817.901,449.59 819.234,449.09 820.5,448.5 Z"/></g>
<g><path style="opacity:0.991" fill="#f3f3f3" d="M 154.5,446.5 C 163.147,462.997 174.98,476.997 190,488.5C 190.684,489.784 190.517,490.951 189.5,492C 186.034,490.934 182.701,489.267 179.5,487C 166.723,476.287 158.39,462.787 154.5,446.5 Z"/></g>
<g><path style="opacity:1" fill="#98777b" d="M 579.5,448.5 C 579.198,451.059 579.532,453.393 580.5,455.5C 580.44,456.043 580.107,456.376 579.5,456.5C 578.2,453.691 578.2,451.024 579.5,448.5 Z"/></g>
<g><path style="opacity:0.994" fill="#e4e4e4" d="M 206.5,455.5 C 210.422,457.915 213.922,460.915 217,464.5C 217.49,465.793 217.657,467.127 217.5,468.5C 214.386,467.909 211.886,466.242 210,463.5C 208.692,461.359 207.192,459.359 205.5,457.5C 205.863,456.817 206.196,456.15 206.5,455.5 Z"/></g>
<g><path style="opacity:0.989" fill="#f1f1f1" d="M 178.5,457.5 C 178.56,456.957 178.893,456.624 179.5,456.5C 185.122,464.957 192.456,471.457 201.5,476C 202.38,477.356 202.714,478.856 202.5,480.5C 195.945,479.152 190.445,475.819 186,470.5C 182.954,466.398 180.454,462.065 178.5,457.5 Z"/></g>
<g><path style="opacity:1" fill="#f2ebec" d="M 629.5,467.5 C 632.473,467.965 633.64,469.632 633,472.5C 629.747,474.543 626.58,476.71 623.5,479C 616.323,485.011 609.656,491.511 603.5,498.5C 602.417,497.635 602.251,496.635 603,495.5C 608.971,483.365 617.804,474.032 629.5,467.5 Z"/></g>
<g><path style="opacity:1" fill="#fafafa" d="M 113.5,506.5 C 115.028,506.517 115.528,507.184 115,508.5C 111.622,513.422 108.122,518.255 104.5,523C 76.0106,540.661 48.8439,560.161 23,581.5C 22.4092,582.483 22.7425,583.15 24,583.5C 39.0959,575.535 54.2625,568.035 69.5,561C 60.5662,569.792 50.8995,577.625 40.5,584.5C 39.1667,585.5 39.1667,586.5 40.5,587.5C 55.9762,580.264 70.9762,572.264 85.5,563.5C 85.8333,563.833 86.1667,564.167 86.5,564.5C 75.3162,573.261 64.3162,582.261 53.5,591.5C 53.8333,591.833 54.1667,592.167 54.5,592.5C 62.7116,588.227 71.0449,584.227 79.5,580.5C 80.568,582.187 80.4014,583.854 79,585.5C 74.8371,588.83 71.0038,592.496 67.5,596.5C 67.8333,597.5 68.5,598.167 69.5,598.5C 71.8111,597.786 73.9777,596.786 76,595.5C 75.1626,601.861 73.8293,608.195 72,614.5C 65.571,618.967 58.7377,622.8 51.5,626C 48.6967,626.755 46.0301,626.422 43.5,625C 41.6667,623.167 39.8333,621.333 38,619.5C 29.3884,606.555 20.3884,593.889 11,581.5C 10.3333,579.833 10.3333,578.167 11,576.5C 45.0705,552.913 79.2372,529.579 113.5,506.5 Z"/></g>
<g><path style="opacity:1" fill="#47272b" d="M 857.5,508.5 C 863.31,509.49 869.31,509.823 875.5,509.5C 868.679,510.655 861.679,510.821 854.5,510C 855.527,509.487 856.527,508.987 857.5,508.5 Z"/></g>
<g><path style="opacity:0.996" fill="#f6f6f6" d="M 128.5,510.5 C 130.344,511.204 130.844,512.537 130,514.5C 120.434,533.863 112.434,553.863 106,574.5C 98.897,598.701 92.5636,623.034 87,647.5C 85.886,645.03 85.386,642.364 85.5,639.5C 87.6698,608.154 95.1698,578.154 108,549.5C 114.349,536.131 121.182,523.131 128.5,510.5 Z"/></g>
<g><path style="opacity:0.996" fill="#f2f2f2" d="M 137.5,521.5 C 138.376,521.369 139.043,521.702 139.5,522.5C 133.235,540.796 127.068,559.13 121,577.5C 117.827,580.329 116.327,579.495 116.5,575C 120.317,555.874 127.317,538.041 137.5,521.5 Z"/></g>
<g><path style="opacity:1" fill="#78565a" d="M 858.5,521.5 C 863.305,522.487 868.305,522.821 873.5,522.5C 867.013,523.654 860.346,523.821 853.5,523C 855.154,522.392 856.821,521.892 858.5,521.5 Z"/></g>
<g><path style="opacity:1" fill="#ededed" d="M 193.5,524.5 C 194.097,524.735 194.43,525.235 194.5,526C 187.95,543.699 181.783,561.533 176,579.5C 176.987,564.86 180.654,550.86 187,537.5C 189.193,533.114 191.36,528.78 193.5,524.5 Z"/></g>
<g><path style="opacity:1" fill="#f4f2f2" d="M 595.5,522.5 C 608.643,545.445 622.809,567.778 638,589.5C 641.447,598.291 643.78,607.291 645,616.5C 625.621,586.745 609.121,555.412 595.5,522.5 Z"/></g>
<g><path style="opacity:0.99" fill="#efefef" d="M 866.5,598.5 C 868.604,598.201 870.604,598.534 872.5,599.5C 867.351,604.727 861.018,607.56 853.5,608C 849.514,608.499 845.514,608.666 841.5,608.5C 841.5,607.5 841.5,606.5 841.5,605.5C 850.407,604.859 858.741,602.526 866.5,598.5 Z"/></g>
<g><path style="opacity:0.992" fill="#ebebeb" d="M 871.5,610.5 C 873.429,610.231 875.095,610.731 876.5,612C 870.67,616.915 864.004,620.248 856.5,622C 847.939,623.933 839.272,625.099 830.5,625.5C 827.636,625.614 824.97,625.114 822.5,624C 839.507,621.829 855.841,617.329 871.5,610.5 Z"/></g>
<g><path style="opacity:1" fill="#f6f6f6" d="M 649.5,607.5 C 673.413,636.659 689.913,669.659 699,706.5C 686.958,682.476 673.291,659.476 658,637.5C 654.854,627.582 652.021,617.582 649.5,607.5 Z"/></g>
<g><path style="opacity:0.996" fill="#f6f6f6" d="M 677.5,619.5 C 720.205,648.565 767.539,663.065 819.5,663C 820.833,664 820.833,665 819.5,666C 786.448,673.136 754.781,669.136 724.5,654C 706.761,645.469 690.761,634.469 676.5,621C 677.056,620.617 677.389,620.117 677.5,619.5 Z"/></g>
<g><path style="opacity:0.995" fill="#f2f2f2" d="M 875.5,624.5 C 877.167,624.5 878.833,624.5 880.5,624.5C 880.762,625.978 880.429,627.311 879.5,628.5C 853.043,640.267 825.377,644.434 796.5,641C 792.384,640.675 788.384,639.841 784.5,638.5C 815.75,638.901 846.083,634.234 875.5,624.5 Z"/></g>
<g><path style="opacity:0.997" fill="#060606" d="M 547.5,635.5 C 553.228,636.948 558.395,639.615 563,643.5C 562.068,641.418 561.568,639.085 561.5,636.5C 564.879,636.853 567.879,638.187 570.5,640.5C 571.311,638.609 572.644,637.276 574.5,636.5C 578.142,638.975 581.642,641.642 585,644.5C 585.195,642.793 585.195,641.126 585,639.5C 586.049,638.483 587.216,638.316 588.5,639C 591,641.5 593.5,644 596,646.5C 596.725,644.842 597.892,644.342 599.5,645C 606.119,649.319 612.619,653.819 619,658.5C 619.483,659.448 619.649,660.448 619.5,661.5C 616.307,660.335 613.307,658.669 610.5,656.5C 609.549,657.326 608.549,657.492 607.5,657C 606,655.5 604.5,654 603,652.5C 602.585,654.291 601.585,655.624 600,656.5C 597.667,654.167 595.333,651.833 593,649.5C 591.611,655.578 588.944,655.912 585,650.5C 584.804,652.286 583.971,653.619 582.5,654.5C 579.193,652.36 576.026,650.026 573,647.5C 572.86,649.256 573.36,650.922 574.5,652.5C 574.023,653.478 573.357,654.311 572.5,655C 569.531,654.342 566.865,652.842 564.5,650.5C 563.904,651.716 563.737,653.049 564,654.5C 563.261,655.574 562.261,656.241 561,656.5C 555.715,653.27 550.215,650.77 544.5,649C 546.774,650.765 548.441,652.932 549.5,655.5C 549.272,657.397 548.272,658.73 546.5,659.5C 544.668,658.752 543.001,657.752 541.5,656.5C 538.509,660.32 535.342,660.32 532,656.5C 530.564,662.221 527.897,662.888 524,658.5C 523.737,661.264 522.237,662.931 519.5,663.5C 517.5,662.5 515.5,661.5 513.5,660.5C 513.251,661.582 513.085,662.915 513,664.5C 512.261,665.574 511.261,666.241 510,666.5C 507.773,665.637 505.607,664.637 503.5,663.5C 500.977,667.963 497.644,668.629 493.5,665.5C 492.719,666.729 492.219,668.062 492,669.5C 488.428,670.053 484.928,669.386 481.5,667.5C 481.346,668.909 481.179,670.576 481,672.5C 478.415,672.963 476.248,674.13 474.5,676C 472.965,676.496 471.465,676.33 470,675.5C 462.592,679.8 454.759,682.8 446.5,684.5C 438.971,683.141 432.805,679.474 428,673.5C 427.333,672.833 427.333,672.167 428,671.5C 430.799,670.227 432.633,668.227 433.5,665.5C 435.92,665.292 438.253,665.626 440.5,666.5C 442.608,664.694 444.274,662.527 445.5,660C 447.384,659.784 449.051,659.117 450.5,658C 452.713,657.374 454.88,657.541 457,658.5C 460.794,654.96 464.96,654.627 469.5,657.5C 469.347,655.5 469.68,653.333 470.5,651C 473.202,650.947 475.869,651.447 478.5,652.5C 480.18,650.991 482.014,649.657 484,648.5C 485.559,649.029 487.059,649.696 488.5,650.5C 490.313,646.458 493.313,645.458 497.5,647.5C 499.054,641.974 502.554,640.308 508,642.5C 509.12,640.925 510.62,639.925 512.5,639.5C 516.088,641.956 519.588,641.956 523,639.5C 525.62,640.206 528.12,641.206 530.5,642.5C 531.281,641.271 531.781,639.938 532,638.5C 532.561,637.978 533.228,637.645 534,637.5C 538.955,639.207 543.788,641.207 548.5,643.5C 548.833,643.167 549.167,642.833 549.5,642.5C 546.766,640.643 546.099,638.309 547.5,635.5 Z"/></g>
<g><path style="opacity:0.996" fill="#f6f6f6" d="M 688.5,649.5 C 716.564,667.582 747.23,679.082 780.5,684C 781.833,685 781.833,686 780.5,687C 747.048,688.962 718.048,678.628 693.5,656C 691.21,654.223 689.543,652.056 688.5,649.5 Z"/></g>
<g><path style="opacity:0.997" fill="#050505" d="M 290.5,668.5 C 294.224,668.05 296.391,669.717 297,673.5C 298.47,671.848 300.303,670.848 302.5,670.5C 306.101,671.254 309.434,672.587 312.5,674.5C 316.82,673.546 321.153,673.713 325.5,675C 329.548,677.407 333.548,679.907 337.5,682.5C 340.052,681.56 340.886,682.56 340,685.5C 336.324,690.342 332.158,694.675 327.5,698.5C 324.314,698.332 320.981,698.165 317.5,698C 310.157,695.135 302.657,692.635 295,690.5C 293.806,691.43 292.473,692.097 291,692.5C 284.67,691.469 278.17,690.136 271.5,688.5C 270.019,689.48 268.685,690.647 267.5,692C 264.99,691.352 262.49,691.519 260,692.5C 257.303,691.038 254.636,689.372 252,687.5C 248.511,690.663 244.511,691.663 240,690.5C 238.481,694.887 235.648,696.22 231.5,694.5C 229.709,696.413 227.709,698.08 225.5,699.5C 223.803,698.636 222.637,697.303 222,695.5C 220.418,698.341 218.251,699.341 215.5,698.5C 213.047,701.241 210.714,704.075 208.5,707C 207.101,707.595 205.768,707.428 204.5,706.5C 203.065,708.401 201.398,708.734 199.5,707.5C 197.573,710.35 195.406,713.017 193,715.5C 191.173,713.586 191.173,711.586 193,709.5C 195.911,706.01 198.578,702.344 201,698.5C 205.654,697.188 209.154,694.355 211.5,690C 212.549,689.508 213.549,689.674 214.5,690.5C 217.51,687.126 220.51,683.792 223.5,680.5C 224.5,681.167 225.5,681.833 226.5,682.5C 228.833,679.833 231.167,679.833 233.5,682.5C 235.833,679.5 238.5,676.833 241.5,674.5C 242.478,674.977 243.311,675.643 244,676.5C 245.316,673.953 247.149,673.287 249.5,674.5C 251.143,671.505 253.477,670.839 256.5,672.5C 258.183,671.408 260.016,670.741 262,670.5C 263.889,671.603 265.723,671.603 267.5,670.5C 269.029,670.529 270.196,671.196 271,672.5C 271.739,671.426 272.739,670.759 274,670.5C 277.297,671.339 280.63,672.339 284,673.5C 286.352,671.97 288.519,670.303 290.5,668.5 Z"/></g>
<g><path style="opacity:1" fill="#f7f7f7" d="M 664.5,668.5 C 682.261,693.686 696.094,721.02 706,750.5C 707.106,754.122 707.439,757.789 707,761.5C 697,743.5 687,725.5 677,707.5C 671.729,694.853 667.562,681.853 664.5,668.5 Z"/></g>
<g><path style="opacity:0.991" fill="#151515" d="M 625.5,670.5 C 626.117,670.611 626.617,670.944 627,671.5C 631.892,688.694 631.225,705.694 625,722.5C 623.322,726.532 621.156,730.199 618.5,733.5C 617.5,733.167 616.833,732.5 616.5,731.5C 626.205,712.189 629.205,691.856 625.5,670.5 Z"/></g>
<g><path style="opacity:0.996" fill="#f2f2f2" d="M 705.5,684.5 C 716.306,688.49 727.306,691.99 738.5,695C 751.414,696.997 764.414,697.997 777.5,698C 780.284,700.784 779.617,702.451 775.5,703C 752.474,706.909 731.14,702.576 711.5,690C 708.957,688.618 706.957,686.785 705.5,684.5 Z"/></g>
<g><path style="opacity:0.994" fill="#f3f3f3" d="M 713.5,706.5 C 726.539,713.79 740.539,717.956 755.5,719C 756.517,720.049 756.684,721.216 756,722.5C 740,724.835 726,720.501 714,709.5C 713.517,708.552 713.351,707.552 713.5,706.5 Z"/></g>
<g><path style="opacity:0.998" fill="#060606" d="M 516.5,710.5 C 533.383,709.691 550.049,711.191 566.5,715C 574.224,717.02 581.558,720.02 588.5,724C 591.311,725.644 593.644,727.81 595.5,730.5C 591.345,730.767 587.179,730.101 583,728.5C 553.682,750.63 521.182,757.13 485.5,748C 480.609,745.136 475.442,742.97 470,741.5C 467.825,741.834 465.992,742.834 464.5,744.5C 463.417,743.635 463.251,742.635 464,741.5C 471.182,730.156 481.016,721.99 493.5,717C 501.163,714.338 508.829,712.172 516.5,710.5 Z"/></g>
<g><path style="opacity:0.981" fill="#e7e7e7" d="M 70.5,712.5 C 75.2946,713.205 79.628,714.872 83.5,717.5C 79.3518,717.799 75.3518,716.799 71.5,714.5C 70.7025,714.043 70.3691,713.376 70.5,712.5 Z"/></g>
<g><path style="opacity:1" fill="#f5f5f5" d="M 536.5,719.5 C 540.881,719.372 545.215,719.705 549.5,720.5C 548.571,728.981 544.737,730.648 538,725.5C 536.872,723.655 536.372,721.655 536.5,719.5 Z"/></g>
<g><path style="opacity:0.995" fill="#111111" d="M 346.5,717.5 C 347.077,716.227 347.743,716.227 348.5,717.5C 356.098,744.285 359.431,771.618 358.5,799.5C 356.901,828.481 356.401,857.481 357,886.5C 358.144,895.91 360.311,905.077 363.5,914C 362.352,915.726 361.185,915.559 360,913.5C 354.511,903.544 351.511,892.878 351,881.5C 352.151,841.514 352.818,801.514 353,761.5C 352.446,746.453 350.28,731.787 346.5,717.5 Z"/></g>
<g><path style="opacity:1" fill="#f6f6f6" d="M 557.5,722.5 C 562.473,722.909 567.14,724.242 571.5,726.5C 566.793,734.268 560.126,738.601 551.5,739.5C 555.479,734.54 557.479,728.874 557.5,722.5 Z"/></g>
<g><path style="opacity:0.988" fill="#efefef" d="M 64.5,724.5 C 69.2316,726.696 73.8982,729.196 78.5,732C 84.2504,734.081 89.9171,736.248 95.5,738.5C 94.6519,739.991 93.3186,740.658 91.5,740.5C 82.5764,738.538 74.5764,734.704 67.5,729C 65.8588,727.871 64.8588,726.371 64.5,724.5 Z"/></g>
<g><path style="opacity:1" fill="#f3f3f3" d="M 500.5,723.5 C 501.972,734.51 507.972,742.344 518.5,747C 503.717,748.412 489.717,745.746 476.5,739C 483.206,739.009 489.539,740.676 495.5,744C 498.167,744.667 500.833,744.667 503.5,744C 495.678,741.118 488.012,737.951 480.5,734.5C 480.977,733.522 481.643,732.689 482.5,732C 488.56,729.049 494.56,726.215 500.5,723.5 Z"/></g>
<g><path style="opacity:0.99" fill="#121212" d="M 184.5,725.5 C 185.167,729.833 185.833,734.167 186.5,738.5C 187.028,751.116 189.695,763.282 194.5,775C 194.15,776.257 193.483,776.591 192.5,776C 184.051,760.137 181.384,743.303 184.5,725.5 Z"/></g>
<g><path style="opacity:0.995" fill="#f4f4f4" d="M 718.5,729.5 C 723.602,731.699 728.935,733.199 734.5,734C 736.166,737.131 735.166,738.631 731.5,738.5C 726.607,737.97 722.44,735.97 719,732.5C 718.517,731.552 718.351,730.552 718.5,729.5 Z"/></g>
<g><path style="opacity:0.867" fill="#b2b2b2" d="M 186.5,738.5 C 185.833,734.167 185.167,729.833 184.5,725.5C 184.783,724.711 185.283,724.044 186,723.5C 186.499,728.489 186.666,733.489 186.5,738.5 Z"/></g>
<g><path style="opacity:0.983" fill="#131313" d="M 585.5,732.5 C 586.552,732.351 587.552,732.517 588.5,733C 582.246,741.245 574.246,747.245 564.5,751C 547.893,756.672 530.893,759.005 513.5,758C 515.285,756.837 517.285,756.17 519.5,756C 538.641,755.64 556.641,750.973 573.5,742C 577.975,739.35 581.975,736.183 585.5,732.5 Z"/></g>
<g><path style="opacity:0.992" fill="#f1f1f1" d="M 67.5,741.5 C 78.0649,747.61 89.3983,751.776 101.5,754C 101.957,754.414 102.291,754.914 102.5,755.5C 90.6092,756.736 79.9426,753.569 70.5,746C 68.8588,744.871 67.8588,743.371 67.5,741.5 Z"/></g>
<g><path style="opacity:0.998" fill="#050505" d="M 273.5,745.5 C 292.21,743.477 309.543,747.31 325.5,757C 328.463,758.961 331.129,761.294 333.5,764C 333.167,764.333 332.833,764.667 332.5,765C 330.244,764.385 327.911,764.052 325.5,764C 301.794,783.766 274.461,791.766 243.5,788C 233.503,786.251 223.836,783.418 214.5,779.5C 210.226,780.97 206.226,782.97 202.5,785.5C 202.167,785 201.833,784.5 201.5,784C 204.402,779.092 208.069,774.758 212.5,771C 230.855,757.717 251.188,749.217 273.5,745.5 Z"/></g>
<g><path style="opacity:1" fill="#ebebeb" d="M 288.5,754.5 C 294.221,753.025 297.388,755.025 298,760.5C 292.757,762.126 289.59,760.126 288.5,754.5 Z"/></g>
<g><path style="opacity:1" fill="#f0f0f0" d="M 303.5,756.5 C 307.476,757.295 311.476,757.962 315.5,758.5C 312.818,762.697 309.485,766.53 305.5,770C 308.824,768.814 311.824,766.814 314.5,764C 315.5,763.333 316.5,763.333 317.5,764C 312.086,769.449 305.752,773.115 298.5,775C 303.83,769.85 305.496,763.683 303.5,756.5 Z"/></g>
<g><path style="opacity:1" fill="#f9f9f9" d="M 264.5,782.5 C 260.03,783.486 255.363,783.819 250.5,783.5C 239.889,784.691 231.222,781.191 224.5,773C 232.77,768.032 241.437,763.865 250.5,760.5C 249.681,771.565 254.347,778.898 264.5,782.5 Z"/></g>
<g><path style="opacity:0.996" fill="#f3f3f3" d="M 897.5,768.5 C 898.496,768.414 899.329,768.748 900,769.5C 912.548,805.012 909.382,839.012 890.5,871.5C 888.955,872.452 887.288,872.785 885.5,872.5C 888.544,862.868 891.71,853.202 895,843.5C 901.342,818.688 902.176,793.688 897.5,768.5 Z"/></g>
<g><path style="opacity:0.753" fill="#767676" d="M 264.5,782.5 C 265.756,782.461 266.756,782.961 267.5,784C 261.651,784.818 255.985,784.652 250.5,783.5C 255.363,783.819 260.03,783.486 264.5,782.5 Z"/></g>
<g><path style="opacity:0.989" fill="#0f0f0f" d="M 209.5,785.5 C 209.735,784.903 210.235,784.57 211,784.5C 229.527,791.362 248.693,795.029 268.5,795.5C 247.547,799.91 227.88,796.577 209.5,785.5 Z"/></g>
<g><path style="opacity:0.992" fill="#f5f5f5" d="M 56.5,880.5 C 56.8966,879.475 57.5632,879.308 58.5,880C 77.1121,895.644 97.1121,909.311 118.5,921C 119.93,922.88 119.596,924.38 117.5,925.5C 92.8751,916.193 72.5417,901.193 56.5,880.5 Z"/></g>
<g><path style="opacity:0.994" fill="#080808" d="M 465.5,887.5 C 474.389,890.554 480.556,896.554 484,905.5C 485.517,911.08 485.851,916.747 485,922.5C 484.402,925.308 483.235,927.808 481.5,930C 479.393,930.854 478.059,930.188 477.5,928C 481.448,915.818 479.614,904.652 472,894.5C 469.534,892.242 467.367,889.909 465.5,887.5 Z"/></g>
<g><path style="opacity:0.995" fill="#f6f6f6" d="M 58.5,899.5 C 59.2389,899.369 59.9056,899.536 60.5,900C 69.9503,912.116 81.2837,922.116 94.5,930C 104.378,935.106 114.378,939.939 124.5,944.5C 125.429,945.689 125.762,947.022 125.5,948.5C 111.329,948.248 98.662,943.748 87.5,935C 74.8329,925.43 65.1662,913.597 58.5,899.5 Z"/></g>
<g><path style="opacity:0.991" fill="#0c0c0c" d="M 349.5,913.5 C 350.496,913.414 351.329,913.748 352,914.5C 351.568,925.963 355.735,935.297 364.5,942.5C 365.452,944.045 365.785,945.712 365.5,947.5C 358.051,945.56 352.885,940.894 350,933.5C 348.22,926.866 348.053,920.2 349.5,913.5 Z"/></g>
<g><path style="opacity:0.997" fill="#0a0a0a" d="M 440.5,921.5 C 444.846,921.334 449.179,921.501 453.5,922C 454.624,922.249 455.624,922.749 456.5,923.5C 452.056,924.688 447.722,926.188 443.5,928C 434.704,934.789 425.37,940.789 415.5,946C 395.094,952.933 379.761,947.433 369.5,929.5C 379.314,936.869 390.314,939.369 402.5,937C 407.279,936.074 411.946,934.741 416.5,933C 424.469,928.846 432.469,925.013 440.5,921.5 Z"/></g>
<g><path style="opacity:0.996" fill="#f7f7f7" d="M 65.5,926.5 C 83.0991,943.644 104.099,955.144 128.5,961C 140.124,964.156 151.791,967.156 163.5,970C 165.286,970.196 166.619,971.029 167.5,972.5C 137.024,975.798 109.357,968.632 84.5,951C 77.211,944.717 71.0443,937.551 66,929.5C 65.5172,928.552 65.3505,927.552 65.5,926.5 Z"/></g>
<g><path style="opacity:0.998" fill="#050505" d="M 434.5,1001.5 C 456.617,1001.04 477.951,1004.37 498.5,1011.5C 495.564,1012.12 492.897,1013.28 490.5,1015C 479.335,1028.24 466.002,1038.57 450.5,1046C 435.868,1051.48 420.868,1052.81 405.5,1050C 399.44,1048.14 393.774,1045.47 388.5,1042C 382.899,1035.56 376.565,1030.06 369.5,1025.5C 383.79,1022.69 396.123,1016.19 406.5,1006C 412.87,1005.51 418.537,1007.35 423.5,1011.5C 426.59,1007.47 430.257,1004.13 434.5,1001.5 Z"/></g>
<g><path style="opacity:0.914" fill="#c2c2c2" d="M 439.5,1005.5 C 440.776,1006.39 440.776,1007.39 439.5,1008.5C 438.438,1007.58 438.438,1006.58 439.5,1005.5 Z"/></g>
<g><path style="opacity:0.775" fill="#b8b8b8" d="M 431.5,1008.5 C 432.124,1008.92 432.457,1009.58 432.5,1010.5C 431.301,1011.57 430.134,1012.57 429,1013.5C 428.833,1013 428.667,1012.5 428.5,1012C 429.544,1010.83 430.544,1009.66 431.5,1008.5 Z"/></g>
<g><path style="opacity:1" fill="#e4e4e4" d="M 462.5,1011.5 C 465.518,1011.34 468.518,1011.5 471.5,1012C 456.133,1017.68 440.466,1022.34 424.5,1026C 411.172,1027.94 397.838,1027.94 384.5,1026C 399.162,1024.67 413.829,1023.33 428.5,1022C 440.154,1019.17 451.487,1015.67 462.5,1011.5 Z"/></g>
<g><path style="opacity:0.986" fill="#eeeeee" d="M 401.5,1012.5 C 402.239,1012.37 402.906,1012.54 403.5,1013C 402.118,1017.71 401.451,1017.54 401.5,1012.5 Z"/></g>
<g><path style="opacity:0.769" fill="#b8b8b8" d="M 398.5,1014.5 C 399.782,1015.71 399.782,1017.04 398.5,1018.5C 397.374,1017.19 397.374,1015.86 398.5,1014.5 Z"/></g>
<g><path style="opacity:0.753" fill="#989898" d="M 386.5,1031.5 C 387.649,1031.79 388.316,1032.62 388.5,1034C 388.333,1034.83 388.167,1035.67 388,1036.5C 386.991,1034.98 386.491,1033.31 386.5,1031.5 Z"/></g>
<g><path style="opacity:0.993" fill="#121212" d="M 479.5,1033.5 C 480.239,1033.37 480.906,1033.54 481.5,1034C 464.359,1051.88 443.359,1059.55 418.5,1057C 410.542,1056.09 402.875,1054.09 395.5,1051C 426.04,1057.13 454.04,1051.29 479.5,1033.5 Z"/></g>
<g><path style="opacity:0.753" fill="#cccccc" d="M 391.5,1033.5 C 392.905,1035.23 393.405,1037.23 393,1039.5C 391.872,1037.65 391.372,1035.65 391.5,1033.5 Z"/></g>
<g><path style="opacity:0.984" fill="#cbcbcb" d="M 395.5,1035.5 C 397.772,1036.8 398.605,1038.8 398,1041.5C 396.878,1039.59 396.045,1037.59 395.5,1035.5 Z"/></g>
<g><path style="opacity:0.784" fill="#e3e3e3" d="M 401.5,1038.5 C 402.703,1039.94 403.203,1041.61 403,1043.5C 401.731,1042.1 401.231,1040.43 401.5,1038.5 Z"/></g>
<g><path style="opacity:0.773" fill="#dadada" d="M 406.5,1042.5 C 406.56,1041.96 406.893,1041.62 407.5,1041.5C 409.959,1044.77 409.625,1045.1 406.5,1042.5 Z"/></g>
<g><path style="opacity:0.898" fill="#e0e0e0" d="M 412.5,1043.5 C 414.085,1044 414.585,1045 414,1046.5C 412.961,1045.76 412.461,1044.76 412.5,1043.5 Z"/></g>
</svg>
