<?xml version="1.0" standalone="no"?>
<!DOCTYPE svg PUBLIC "-//W3C//DTD SVG 20010904//EN"
 "http://www.w3.org/TR/2001/REC-SVG-20010904/DTD/svg10.dtd">
<svg version="1.0" xmlns="http://www.w3.org/2000/svg"
 width="4718.000000pt" height="4718.000000pt" viewBox="0 0 4718.000000 4718.000000"
 preserveAspectRatio="xMidYMid meet">

<g transform="translate(0.000000,4718.000000) scale(0.100000,-0.100000)"
fill="#000000" stroke="none">
<path d="M23340 42289 c-1396 -50 -2746 -553 -3840 -1430 -619 -497 -1139
-1095 -1550 -1784 -108 -180 -309 -578 -390 -770 -561 -1336 -671 -2796 -315
-4190 457 -1794 1664 -3316 3317 -4184 663 -348 1441 -592 2183 -686 287 -36
414 -45 715 -52 1538 -33 3027 471 4225 1432 1358 1088 2222 2654 2419 4380
53 460 53 1002 0 1475 -183 1659 -1019 3213 -2309 4290 -611 510 -1329 916
-2072 1171 -582 199 -1227 322 -1799 344 -311 11 -375 12 -584 4z"/>
</g>
</svg>
