<?xml version="1.0" standalone="no"?>
<!DOCTYPE svg PUBLIC "-//W3C//DTD SVG 20010904//EN"
 "http://www.w3.org/TR/2001/REC-SVG-20010904/DTD/svg10.dtd">
<svg version="1.0" xmlns="http://www.w3.org/2000/svg"
 width="600.000000pt" height="147.000000pt" viewBox="0 0 600.000000 147.000000"
 preserveAspectRatio="xMidYMid meet">

<g transform="translate(0.000000,147.000000) scale(0.100000,-0.100000)"
fill="#000000" stroke="none">
<path d="M645 1109 c-17 -5 -43 -21 -58 -37 -59 -62 -41 -154 39 -192 40 -20
48 -21 86 -8 152 48 86 280 -67 237z"/>
<path d="M3720 991 c-136 -45 -204 -140 -204 -286 0 -90 14 -132 64 -189 57
-64 101 -81 210 -81 68 0 108 5 143 18 l47 19 0 134 0 134 -105 0 -105 0 0
-40 0 -40 60 0 60 0 0 -65 c0 -76 -11 -86 -94 -87 -69 -1 -121 25 -154 75 -22
33 -28 54 -30 116 -3 65 0 83 21 121 35 67 98 102 180 102 35 0 81 -8 102 -16
20 -9 39 -16 41 -16 2 0 4 20 4 44 0 32 -5 46 -17 51 -27 11 -195 16 -223 6z"/>
<path d="M5535 985 c-22 -8 -55 -30 -72 -49 -28 -30 -33 -43 -33 -83 0 -78 33
-114 157 -176 104 -53 125 -91 79 -144 -22 -25 -31 -28 -88 -28 -44 0 -76 7
-105 21 l-43 21 0 -43 c0 -59 19 -68 140 -69 74 0 104 4 134 19 49 25 76 69
76 125 0 78 -38 118 -190 197 -65 35 -83 68 -57 108 31 47 127 57 210 21 15
-6 17 -1 17 34 0 35 -4 43 -26 51 -37 14 -153 11 -199 -5z"/>
<path d="M4247 983 c-3 -5 -46 -117 -95 -248 -50 -132 -95 -253 -101 -268
l-11 -28 52 3 51 3 22 65 22 65 110 3 110 3 24 -68 24 -68 51 -3 51 -3 -102
273 -102 273 -50 3 c-28 2 -54 -1 -56 -5z m94 -204 c21 -62 39 -116 39 -121 0
-4 -39 -8 -86 -8 -47 0 -84 4 -82 8 2 5 21 61 43 125 22 64 41 114 43 112 2
-2 21 -54 43 -116z"/>
<path d="M4550 955 l0 -35 80 0 80 0 0 -240 0 -240 45 0 45 0 0 240 0 240 80
0 80 0 0 35 0 35 -205 0 -205 0 0 -35z"/>
<path d="M5040 715 l0 -275 155 0 155 0 0 35 0 34 -107 3 -108 3 -3 83 -3 82
96 0 95 0 0 40 0 40 -95 0 -96 0 3 78 3 77 103 3 102 3 0 34 0 35 -150 0 -150
0 0 -275z"/>
</g>
</svg>
