<?xml version="1.0" standalone="no"?>
<!DOCTYPE svg PUBLIC "-//W3C//DTD SVG 20010904//EN"
 "http://www.w3.org/TR/2001/REC-SVG-20010904/DTD/svg10.dtd">
<svg version="1.0" xmlns="http://www.w3.org/2000/svg"
 width="260.000000pt" height="260.000000pt" viewBox="0 0 260.000000 260.000000"
 preserveAspectRatio="xMidYMid meet">
<metadata>
Created by potrace 1.14, written by Peter Selinger 2001-2017
</metadata>
<g transform="translate(0.000000,260.000000) scale(0.100000,-0.100000)"
fill="#000000" stroke="none">
<path d="M221 2467 c-31 -16 -61 -75 -55 -107 3 -14 13 -35 22 -47 18 -24 290
-190 388 -237 l60 -29 -1 -196 0 -195 -58 -2 c-32 -1 -69 -7 -82 -14 -49 -26
-60 -106 -21 -155 22 -27 31 -31 92 -35 l69 -5 0 -97 1 -98 -48 0 c-79 0 -121
-24 -135 -76 -9 -36 -5 -61 14 -90 16 -25 69 -47 105 -44 68 6 63 21 61 -202
-1 -112 -2 -292 -2 -400 l-1 -198 -192 0 c-216 0 -233 -4 -261 -63 -22 -43
-13 -86 25 -119 21 -18 52 -19 1070 -17 l1048 1 25 30 c35 42 35 105 -1 139
-25 23 -30 24 -225 27 -197 3 -199 3 -200 25 -1 12 0 27 1 32 6 30 4 135 -3
135 -5 0 -5 5 -1 12 4 6 9 124 10 262 1 138 3 270 3 293 l1 41 51 -2 c85 -3
129 31 131 102 2 70 -37 102 -126 102 l-52 0 0 100 1 100 60 0 c78 0 114 26
122 87 11 80 -36 121 -134 118 -24 0 -43 4 -44 9 0 6 0 54 1 106 1 52 3 135 4
184 l1 89 100 51 c139 71 317 176 338 200 37 41 34 117 -6 151 -41 36 -81 25
-221 -59 -113 -68 -241 -139 -256 -141 -3 -1 -23 -9 -45 -19 -22 -10 -44 -19
-50 -20 -5 -1 -41 -12 -80 -24 -142 -42 -227 -55 -395 -58 -134 -3 -187 1
-280 18 -63 11 -118 25 -122 31 -4 6 -10 9 -13 5 -6 -5 -57 9 -133 37 -7 2
-14 5 -17 5 -23 5 -210 105 -330 179 -82 50 -159 91 -170 91 -11 0 -31 -6 -44
-13z m629 -495 c0 -5 6 -9 13 -10 25 -3 62 -10 62 -12 0 -2 32 -10 65 -15 14
-3 39 -7 55 -10 17 -3 57 -8 91 -12 l60 -5 -2 -122 c-1 -66 -2 -124 -3 -129 0
-4 -83 -6 -183 -5 l-183 3 0 145 c0 80 1 153 3 163 4 17 22 24 22 9z m904
-159 c-1 -87 -3 -160 -3 -163 -1 -3 -58 -4 -128 -3 -71 1 -153 2 -184 2 l-57
1 3 123 c2 67 3 125 4 128 1 3 34 9 74 12 40 4 104 13 143 21 38 8 83 17 98
20 16 3 31 8 34 11 16 15 18 -8 16 -152z m-11 -372 c4 -1 7 -45 6 -99 l-3 -99
-455 3 c-251 1 -459 3 -462 3 -5 1 -5 193 0 197 1 1 900 -4 914 -5z m-718
-400 c17 -1 37 -1 45 -1 8 1 33 1 55 1 22 0 51 0 65 0 14 0 48 -1 75 -1 28 -1
55 -1 60 0 6 1 15 1 20 0 6 -1 96 -2 202 -2 168 -1 192 -3 195 -17 4 -16 1
-452 -5 -666 l-3 -110 -459 0 -460 0 2 320 c1 176 3 355 4 397 2 88 -3 84 109
81 36 -1 79 -2 95 -2z"/>
</g>
</svg>
